<?xml version="1.0" standalone="no"?>
<!DOCTYPE svg PUBLIC "-//W3C//DTD SVG 1.1//EN" "http://www.w3.org/Graphics/SVG/1.1/DTD/svg11.dtd" >
<svg xmlns="http://www.w3.org/2000/svg">
<metadata>
This is a custom SVG webfont generated by Font Squirrel.
Copyright   : Copyright c 2010 by Julia Petretta All rights reserved
Designer    : Julia Petretta
Foundry     : Julia Petretta
</metadata>
<defs>
<font id="Kreonbold" horiz-adv-x="499" >
<font-face units-per-em="1000" ascent="727" descent="-273" />
<missing-glyph horiz-adv-x="240" />
<glyph unicode=" "  horiz-adv-x="240" />
<glyph unicode="&#x09;" horiz-adv-x="240" />
<glyph unicode="&#xa0;" horiz-adv-x="240" />
<glyph unicode="!" horiz-adv-x="276" d="M97 247l-39 428l144 14l21 -38l-48 -404h-78zM70 63q0 28 20 47t48 19q27 0 46.5 -19t19.5 -47t-19.5 -47.5t-46.5 -19.5q-28 0 -48 19.5t-20 47.5z" />
<glyph unicode="&#x22;" horiz-adv-x="371" d="M28 689l123 10l17 -30l-29 -227h-75zM199 689l123 10l17 -30l-29 -227h-75z" />
<glyph unicode="#" horiz-adv-x="675" d="M355 512h78l52 158h110l13 -14l-47 -144h75q6 0 6 -8v-97h-116l-39 -119h107q6 0 6 -9v-96h-147l-44 -135h-107l-16 13l40 122h-82l-45 -135h-107l-16 13l41 122h-70l-18 71l18 34h105l40 119h-114l-18 72l18 33h150l53 158h109l14 -14zM280 288h80l39 119h-79z" />
<glyph unicode="$" horiz-adv-x="511" d="M214 -154v152q-48 4 -90.5 17t-76.5 27l-14 190h87l31 -117q12 -4 37.5 -9t54.5 -5q48 0 74.5 23t26.5 67q0 20 -10.5 35.5t-27.5 28t-38 22l-42 18.5q-40 16 -74.5 34t-60 42t-40 55.5t-14.5 76.5q0 40 14 71.5t38 54.5t56 38t69 21v119h99v-115q41 -3 74 -10.5 t65 -20.5l15 -187h-84l-45 103q-13 5 -28.5 8t-39.5 3q-43 0 -69.5 -18t-26.5 -57q0 -21 10.5 -35.5t30 -26.5t47.5 -24.5t62 -29.5q71 -36 114 -82.5t43 -111.5q0 -45 -13 -79.5t-36 -59.5t-53.5 -40t-65.5 -22v-156h-99z" />
<glyph unicode="%" horiz-adv-x="823" d="M581 180q0 -38 12 -64t38 -26q25 0 37.5 26t12.5 64q0 37 -12.5 62.5t-37.5 25.5q-26 0 -38 -25.5t-12 -62.5zM465 180q0 39 12.5 72t34.5 57.5t52.5 38.5t66.5 14t66 -12.5t51.5 -36t34 -57.5t12.5 -76q0 -39 -12.5 -72.5t-34 -58.5t-51.5 -39t-66 -14t-66.5 14 t-52.5 39t-34.5 58.5t-12.5 72.5zM254 0h-124l-10 13l444 678h124l10 -14zM144 517q0 -38 12 -64t38 -26q25 0 37.5 26t12.5 64q0 37 -12.5 62.5t-37.5 25.5q-26 0 -38 -25.5t-12 -62.5zM28 517q0 39 12.5 72t34.5 57.5t52.5 38.5t66.5 14t66 -12.5t51.5 -36t34 -57.5 t12.5 -76q0 -39 -12.5 -72.5t-34 -58.5t-51.5 -39t-66 -14t-66.5 14t-52.5 39t-34.5 58.5t-12.5 72.5z" />
<glyph unicode="&#x26;" horiz-adv-x="710" d="M609 383q-2 -15 -7 -38.5t-13.5 -52.5t-21.5 -61.5t-32 -65.5l-4 -8q24 -23 42 -38.5t25 -19.5l44 49l76 -96q-14 -19 -42 -36.5t-83 -17.5q-41 0 -79 12.5t-68 42.5q-30 -24 -72 -40.5t-100 -16.5q-47 0 -91 12t-78.5 38t-55.5 66.5t-21 96.5q0 34 10 62.5t26.5 52 t37 42.5t42.5 34q-24 35 -40 72.5t-16 82.5q0 30 8 61.5t29 58t57.5 43.5t93.5 17q78 0 120.5 -41t42.5 -107q0 -59 -32 -111t-85 -98l23.5 -28t26 -30l32.5 -35.5l43 -44.5q16 34 24 74h-47l-21 85h191zM208 320q-23 -23 -36 -49t-13 -61q0 -23 8.5 -43.5t24 -36t37.5 -25 t50 -9.5q46 0 88 34q-32 33 -62 68.5t-53 66.5zM208 575q0 -19 10 -43.5t34 -60.5q28 26 46 53t18 56q0 24 -14 39.5t-39 15.5q-26 0 -40.5 -17t-14.5 -43z" />
<glyph unicode="'" horiz-adv-x="203" d="M30 659l123 10l17 -30l-29 -227h-75z" />
<glyph unicode="(" horiz-adv-x="310" d="M156 -162q-11 23 -29.5 65.5t-36 101t-30.5 130.5t-13 155q0 82 11.5 153t28 128.5t35.5 100.5t34 70h126q-16 -30 -33.5 -75t-32 -102t-24 -126t-9.5 -148t11 -148.5t26.5 -127.5t32.5 -103t29 -74h-126z" />
<glyph unicode=")" horiz-adv-x="311" d="M28 -162q12 29 29 74t32.5 103t26.5 127.5t11 148.5t-9.5 148t-23.5 126t-32 102t-34 75h126q15 -27 34.5 -70t36 -100.5t28 -128.5t11.5 -153q0 -83 -13 -155t-31 -130.5t-36.5 -101t-29.5 -65.5h-126z" />
<glyph unicode="*" horiz-adv-x="367" d="M206 608l83 71l50 -44l-10 -33l-104 -34l109 -36l-15 -64l-32 -9l-81 69l21 -107l-63 -21l-23 24l20 103l-81 -71l-53 45l11 32l99 33l-102 36l13 67l33 8l80 -70l-21 108l64 21l23 -24zM178 559l11 1l4 7l-5 9l-9 -1l-5 -9z" />
<glyph unicode="+" horiz-adv-x="431" d="M258 558v-158h142v-86h-142v-173h-74l-13 7v166h-142v73l7 13h135v158h87z" />
<glyph unicode="," horiz-adv-x="234" d="M16 -123l51 112l-26 125l137 19q2 -8 5 -31.5t3 -54.5q0 -33 -8 -65t-20 -60.5t-26.5 -52.5t-28.5 -42l-84 39z" />
<glyph unicode="-" horiz-adv-x="423" d="M53 250v82l18 12h292q6 0 6 -7v-87h-316z" />
<glyph unicode="." horiz-adv-x="211" d="M38 63q0 28 20 47t47 19q28 0 47.5 -19t19.5 -47t-19.5 -47.5t-47.5 -19.5q-27 0 -47 19.5t-20 47.5z" />
<glyph unicode="/" horiz-adv-x="486" d="M148 0h-125l-3 13l318 678h128l-1 -14z" />
<glyph unicode="0" horiz-adv-x="590" d="M37 343q0 65 13.5 127.5t44 111t79.5 78.5t120 30t120.5 -30t80 -78.5t44.5 -111t14 -127.5t-14 -127t-44.5 -111t-80 -79t-120.5 -30t-120 30t-79.5 79t-44 111t-13.5 127zM175 343q0 -37 4 -79.5t17 -78.5t36.5 -60t61.5 -24q39 0 62.5 24t36.5 60t17.5 78.5t4.5 79.5 t-4.5 79.5t-17.5 78.5t-36.5 60t-62.5 24q-38 0 -61.5 -24t-36.5 -60t-17 -78.5t-4 -79.5z" />
<glyph unicode="1" horiz-adv-x="365" d="M34 83l99 15v457l-93 -17l-20 87l229 69l15 -9v-592l85 -13q0 -6 -1 -18l-1 -24q0 -12 -0.5 -22.5t-0.5 -14.5h-309z" />
<glyph unicode="2" horiz-adv-x="538" d="M53 0l-15 81q14 17 41.5 45.5l60 64l67 76t62 81t45.5 78.5t18 70q0 48 -24.5 68t-61.5 20q-20 0 -34.5 -2.5t-25.5 -7.5l-44 -104l-128 65q18 32 43.5 60t57.5 49t70 33t81 12q34 0 70.5 -10.5t66 -33t48.5 -58.5t19 -87q0 -39 -15.5 -79t-39.5 -78.5t-54 -74.5t-60 -67 l-55.5 -55.5l-41.5 -40.5h187l41 110h78l-22 -215h-435z" />
<glyph unicode="3" horiz-adv-x="522" d="M96 176q32 -30 69 -53t85 -23q33 0 52 12t29 27.5t12.5 30.5t2.5 21q0 13 -5 30.5t-20 32.5t-43.5 25.5t-75.5 10.5h-67v105h47q76 0 112.5 27t36.5 78q0 24 -8.5 40t-21.5 26t-27.5 14.5t-26.5 4.5q-20 0 -36.5 -1.5t-26.5 -5.5l-46 -108l-121 65q18 33 41.5 61.5 t53.5 49t67.5 32.5t84.5 12q36 0 72.5 -11t66 -34t48.5 -57.5t19 -82.5q0 -27 -8 -53t-22.5 -47t-35.5 -36t-46 -20q19 -4 40 -13q23 -9 42 -26.5t31.5 -44.5t12.5 -64q0 -52 -21 -90.5t-54.5 -64t-74.5 -38t-81 -12.5q-46 0 -82.5 7.5t-65 18.5t-48.5 25t-32 26z" />
<glyph unicode="4" horiz-adv-x="539" d="M152 83l143 15v89h-262l-38 88l283 416h147v-399h78v-105h-78v-93l75 -13v-19q0 -12 0.5 -25t1 -23.5t1.5 -13.5h-351v83zM295 292v257l-178 -257h178z" />
<glyph unicode="5" horiz-adv-x="517" d="M104 691h363v-106h-262v-115q9 1 18 1.5t18 0.5q54 0 98.5 -16t76.5 -46t49.5 -73t17.5 -97q0 -58 -20 -103.5t-55 -76.5t-83 -47.5t-105 -16.5q-41 0 -74 7.5t-59 19t-45 25t-31 25.5l60 98q10 -12 24 -24.5t32 -23t38.5 -17t43.5 -6.5q28 0 53 10t43.5 28.5t29 43.5 t10.5 55q0 34 -13.5 59t-36 42t-50.5 25.5t-58 8.5q-20 0 -35 -1.5t-28 -3.5t-25 -5t-25 -7v303z" />
<glyph unicode="6" horiz-adv-x="554" d="M317 692q46 0 79.5 -12t56.5 -28.5t37.5 -34t22.5 -29.5l-115 -74l-49 68q-7 2 -16.5 3.5t-23.5 1.5q-22 0 -44.5 -12.5t-42 -38.5t-33.5 -65t-17 -93q23 26 62 41t82 15q36 0 72.5 -12.5t66 -38t48.5 -66t19 -95.5q0 -51 -16 -92.5t-45.5 -71.5t-71.5 -46t-95 -16 q-73 0 -122.5 30.5t-79.5 80t-43 113t-13 130.5q0 71 20 133t57 108t89 73t115 28zM288 327q-40 0 -69.5 -29t-29.5 -91q13 -46 38 -76t65 -30q50 0 71.5 33t21.5 82q0 27 -9 47.5t-23 35t-31.5 21.5t-33.5 7z" />
<glyph unicode="7" horiz-adv-x="455" d="M129 567l-21 -113h-84v237h416l18 -26l-207 -665h-136l-11 20l220 547h-195z" />
<glyph unicode="8" horiz-adv-x="545" d="M69 526q0 45 19 77t49 53t67 30.5t72 9.5q36 0 72.5 -9.5t65.5 -29.5t47.5 -52t18.5 -77q0 -50 -28 -87.5t-68 -66.5q25 -14 48.5 -30t41 -37.5t28 -49t10.5 -63.5q0 -49 -20 -86t-54 -62t-77.5 -38t-90.5 -13t-90 12t-75.5 35.5t-52 59t-19.5 82.5q0 63 30.5 113 t85.5 79q-35 25 -57.5 60t-22.5 90zM171 197q0 -33 13 -52.5t30.5 -29t34 -12.5t24.5 -3q15 0 32.5 5t32.5 16.5t25.5 30t10.5 46.5q0 23 -10 40.5t-27 32t-39.5 26l-46.5 23.5q-36 -24 -58 -56t-22 -67zM355 532q0 30 -19.5 54t-60.5 24q-39 0 -59.5 -22.5t-20.5 -54.5 q0 -39 25 -64t62 -45q13 10 26 21.5t23.5 25t17 29t6.5 32.5z" />
<glyph unicode="9" horiz-adv-x="543" d="M234 -4q-37 0 -69 7.5t-58.5 19t-47 25t-32.5 25.5l71 94q30 -28 65 -46t80 -20q33 1 55.5 15t37 38t22 58.5t9.5 76.5q-26 -23 -58 -31.5t-56 -8.5q-47 0 -86 13t-67.5 39.5t-44.5 65.5t-16 91q0 47 14 89.5t42.5 74.5t72.5 50.5t103 18.5q63 0 107.5 -28.5t73 -76.5 t41.5 -112t13 -136q0 -71 -18 -133t-52.5 -108.5t-85 -73.5t-116.5 -27zM262 354q29 0 59.5 19t44.5 54q-2 33 -8 62t-18 50.5t-31 34t-47 12.5q-24 0 -41 -11.5t-27 -28.5t-14.5 -38.5t-4.5 -40.5q0 -48 21 -80.5t66 -32.5z" />
<glyph unicode=":" horiz-adv-x="241" d="M54 193q0 28 20 47t48 19q27 0 46.5 -19t19.5 -47t-19.5 -47.5t-46.5 -19.5q-28 0 -48 19.5t-20 47.5zM54 455q0 28 20 47.5t48 19.5q27 0 46.5 -19.5t19.5 -47.5q0 -27 -19.5 -47t-46.5 -20q-28 0 -48 20t-20 47z" />
<glyph unicode=";" horiz-adv-x="248" d="M24 -123l51 112l-26 125l137 19q2 -8 5 -31.5t3 -54.5q0 -33 -8 -65t-20 -60.5t-26.5 -52.5t-28.5 -42l-84 39zM58 295q0 28 20 47.5t48 19.5q27 0 46.5 -19.5t19.5 -47.5q0 -27 -19.5 -47t-46.5 -20q-28 0 -48 20t-20 47z" />
<glyph unicode="&#x3c;" horiz-adv-x="415" d="M356 471l-226 -132l226 -133v-131l-327 204v121l327 203v-132z" />
<glyph unicode="=" horiz-adv-x="463" d="M54 304h355v-99h-355v99zM54 460h355v-100h-355v100z" />
<glyph unicode="&#x3e;" horiz-adv-x="415" d="M59 603l327 -203v-121l-327 -204v131l226 133l-226 132v132z" />
<glyph unicode="?" horiz-adv-x="429" d="M128 235q-2 5 -6 25.5t-4 41.5q0 30 11 52.5t27 41t35 34t35 31t27 33t11 40.5q0 34 -20 49.5t-46 15.5q-16 0 -34 -2.5t-26 -5.5l-25 -96h-81l16 175q32 11 73.5 21.5t93.5 10.5q88 0 137 -41.5t49 -109.5q0 -46 -13 -78.5t-32.5 -57t-42 -43t-42 -37t-32.5 -39 t-13 -49.5q0 -2 0.5 -5t0.5 -6zM111 63q0 28 19.5 47t47.5 19t47 -19t19 -47t-19 -47.5t-47 -19.5t-47.5 19.5t-19.5 47.5z" />
<glyph unicode="@" horiz-adv-x="879" d="M460 526q35 0 64 -7.5t51 -18.5l27 9l33 -11v-254q0 -28 9 -33.5t22 -5.5q7 0 18 9.5t21 29.5t17 51t7 74q0 54 -19 98.5t-55 76.5t-88 50t-118 18q-58 0 -111.5 -19.5t-94.5 -57t-65.5 -91.5t-24.5 -124q0 -71 24 -126.5t65 -93.5t97 -57.5t121 -19.5q31 0 66.5 5 t59.5 16l23 -4l-36 -116q-26 -8 -63.5 -12t-68.5 -4q-81 0 -155.5 27t-130.5 79.5t-89.5 129.5t-33.5 178q0 100 37 176t97.5 127.5t137.5 77.5t157 26t151 -26t124 -73.5t83.5 -113.5t30.5 -146q0 -58 -16 -107.5t-43.5 -85.5t-65 -56.5t-80.5 -20.5q-35 0 -58.5 8.5 t-38.5 23.5q-15 -11 -43 -21t-69 -10q-31 0 -66 10.5t-65 35t-50 64t-20 97.5q0 66 24.5 108.5t59.5 67t73.5 33.5t67.5 9zM459 186q13 0 27.5 4.5t28.5 14.5q-1 7 -1 13v214q-22 10 -50 10q-50 0 -77.5 -32.5t-27.5 -98.5q0 -59 26.5 -92t73.5 -33z" />
<glyph unicode="A" horiz-adv-x="621" d="M349 0v75l80 21l-36 122h-196l-38 -126l88 -16v-76h-239l-13 78l55 18l198 594h124l201 -594l46 -18l-10 -78h-260zM228 323h121l-53 225z" />
<glyph unicode="B" horiz-adv-x="596" d="M55 0l-14 85l64 15v493l-70 7v90h277q53 0 94.5 -14t70.5 -38.5t44 -57.5t15 -71q0 -35 -11.5 -62.5t-28.5 -47t-36.5 -31t-35.5 -15.5q64 -17 102 -56t38 -110q0 -47 -16 -82.5t-45.5 -58.5t-70.5 -34.5t-90 -11.5h-287zM236 295v-190h74q24 0 45.5 4.5t37 15.5t25 29 t9.5 45q0 50 -34.5 73t-98.5 23h-58zM399 494q0 25 -9.5 42t-26 28t-38 16t-44.5 5h-45v-185h59q52 0 78 26t26 68z" />
<glyph unicode="C" horiz-adv-x="587" d="M162 348q1 -54 16 -99.5t42 -78t65 -51t85 -18.5q41 0 82 15t70 44l42 -89q-14 -16 -35.5 -30t-47.5 -24t-56 -15.5t-60 -5.5q-68 0 -129 21t-107 63.5t-73.5 106t-27.5 147.5q0 88 28.5 154.5t75 111.5t105.5 68t121 23q67 0 109.5 -9.5t59.5 -14.5l20 -207h-81l-32 71 l-16.5 37t-7.5 14t-3 2q-7 1 -15 1.5t-24 0.5q-42 0 -79 -16.5t-64.5 -47.5t-44.5 -75t-18 -99z" />
<glyph unicode="D" horiz-adv-x="637" d="M39 88l65 13v493l-63 8v88h178q91 0 163 -21t121.5 -63t76 -105.5t26.5 -147.5q0 -170 -86.5 -261.5t-257.5 -91.5h-209zM469 350q0 119 -60 177t-174 58v-480q5 0 9.5 -0.5t9.5 -0.5q106 0 160.5 62.5t54.5 183.5z" />
<glyph unicode="E" horiz-adv-x="555" d="M497 690l19 -204h-78l-41 99h-162v-178h152v-105h-152v-197h169l37 99h79l-21 -204h-446l-14 88l65 13v493l-63 7v89h456z" />
<glyph unicode="F" horiz-adv-x="528" d="M398 0h-345l-14 88l65 13v493l-63 7v89h456l19 -205h-76l-43 100h-162v-178h152v-105h-152v-197l170 -26z" />
<glyph unicode="G" horiz-adv-x="620" d="M572 324v-315q-14 -2 -35 -4t-46.5 -4t-54 -3.5t-56.5 -1.5q-70 0 -134 20t-112.5 62t-77.5 106.5t-29 152.5q0 83 26 149t72.5 111.5t110 70t138.5 24.5q30 0 57.5 -3t51 -7t40 -8.5t24.5 -6.5l18 -206h-81l-51 123q-9 1 -20 2t-41 1q-42 0 -80 -17.5t-66.5 -50.5 t-45 -79t-16.5 -103q0 -53 16 -96.5t47 -75.5t77.5 -49.5t106.5 -17.5q11 0 18 0.5t12 1.5v129l-103 14l18 81h216z" />
<glyph unicode="H" horiz-adv-x="702" d="M403 89l58 13v200h-225v-203l63 -12v-19q0 -13 0.5 -27t0.5 -26v-15h-245l-15 89l65 13v490l-63 7v91h244l15 -93l-65 -12v-178h225v185l-56 7v91h247l15 -93l-75 -12v-486l73 -12v-19q0 -13 -0.5 -27t-0.5 -26v-15h-246z" />
<glyph unicode="I" horiz-adv-x="348" d="M37 89l70 13v490l-68 7v91h260l15 -93l-76 -12v-486l74 -12v-19q0 -13 -0.5 -27t-0.5 -26v-15h-260z" />
<glyph unicode="J" horiz-adv-x="397" d="M304 175q0 -58 -14 -93t-36 -54t-47.5 -25.5t-47.5 -6.5q-24 0 -47 6t-43.5 15t-37.5 20t-29 22l70 101q29 -23 49.5 -36.5t34.5 -13.5q17 0 17 26v449l-80 12l15 93h264v-91l-68 -7v-417z" />
<glyph unicode="K" horiz-adv-x="635" d="M37 89l70 13v490l-68 5v93h253l15 -90l-69 -15v-240l201 240l-77 16v89h252v-89l-39 -8l-31.5 -39.5l-41.5 -48.5l-48.5 -55l-51.5 -59l162 -294l54 -10v-87h-158l-146 291l-42.5 -49l-33.5 -40v-103l66 -12v-19q0 -13 0.5 -27t0.5 -26v-15h-254z" />
<glyph unicode="L" horiz-adv-x="524" d="M295 690l15 -91l-75 -14v-480h169l37 99h79l-21 -204h-446l-14 88l65 13v493l-63 7v89h254z" />
<glyph unicode="M" horiz-adv-x="895" d="M49 690h257l144 -512l145 512h239l15 -93l-55 -12v-491l51 -7v-87h-212l-9 90l44 13v493l-167 -583h-134l-163 576v-491l46 -11q0 -4 0.5 -18t0.5 -29v-40h-200l-6 87l59 8v495l-55 6v94z" />
<glyph unicode="N" horiz-adv-x="727" d="M211 562v-458l51 -16v-23q0 -14 -0.5 -27.5t-0.5 -24.5v-13h-208l-16 87l69 13v490l-64 7v93h256l227 -594v496l-58 7v91h215l15 -93l-67 -12v-585h-202z" />
<glyph unicode="O" horiz-adv-x="655" d="M328 -4q-71 0 -125.5 26t-91.5 72t-56 110t-19 141t19 141t56 110t91.5 71.5t125.5 25.5t125.5 -25.5t91 -71.5t55.5 -110t19 -141t-19 -141t-55.5 -110t-91 -72t-125.5 -26zM173 343q0 -51 11 -95t31 -77t48.5 -51.5t64.5 -18.5q35 0 63.5 18.5t48.5 51.5t31 77t11 95 t-11 96t-31 78t-48.5 52t-63.5 19q-36 0 -64.5 -19t-48.5 -52t-31 -78t-11 -96z" />
<glyph unicode="P" horiz-adv-x="585" d="M238 327q61 0 99.5 9.5t60 27t29 42.5t7.5 57q0 56 -34 89t-107 33h-55v-258zM37 86l70 14v492l-68 7v91h250q71 0 124 -16t88 -46t52.5 -72.5t17.5 -95.5t-17.5 -97t-53.5 -75.5t-89.5 -48.5t-125.5 -17h-47v-108q0 -8 4.5 -9.5t12.5 -2.5q12 -2 30.5 -4t37.5 -5 t37 -5.5t30 -4.5l-6 -83h-333z" />
<glyph unicode="Q" horiz-adv-x="655" d="M314 -15l208 -76l7 -38l-94 -98l-176 155zM328 -4q-71 0 -125.5 26t-91.5 72t-56 110t-19 141t19 141t56 110t91.5 71.5t125.5 25.5t125.5 -25.5t91 -71.5t55.5 -110t19 -141t-19 -141t-55.5 -110t-91 -72t-125.5 -26zM173 343q0 -51 11 -95t31 -77t48.5 -51.5 t64.5 -18.5q35 0 63.5 18.5t48.5 51.5t31 77t11 95t-11 96t-31 78t-48.5 52t-63.5 19q-36 0 -64.5 -19t-48.5 -52t-31 -78t-11 -96z" />
<glyph unicode="R" horiz-adv-x="612" d="M38 85l69 14v493l-68 7v91h245q73 0 127.5 -16.5t90 -46.5t53 -71.5t17.5 -90.5q0 -74 -36.5 -124t-102.5 -77l88 -167l63 -10v-87h-169l-104 234q-35 -3 -73 -3v-136l52 -8v-87h-243zM238 337q6 -1 15 -1h18q44 0 75.5 10t51.5 27t29.5 40t9.5 49q0 29 -9 52t-32 38.5 t-61.5 23.5t-96.5 8v-247z" />
<glyph unicode="S" horiz-adv-x="528" d="M352 183q0 20 -7.5 34.5t-23.5 27t-39.5 24l-55.5 26.5q-39 18 -72 36t-57.5 41.5t-38.5 55t-14 76.5q0 43 18.5 78t50 59.5t74.5 37.5t91 13q52 0 101.5 -8t88.5 -19l15 -190h-84l-49 106q-13 2 -32 4t-36 2q-53 0 -77.5 -22t-24.5 -54q0 -20 13 -35.5t33 -28 t43.5 -23.5l45.5 -21q44 -21 77 -41.5t54.5 -44.5t32 -52t10.5 -64q0 -56 -22 -95t-57 -63.5t-80 -35.5t-90 -11q-59 0 -111.5 14.5t-92.5 30.5l20 193l84 -7l8 -111q13 -3 35.5 -9t50.5 -6q24 0 45 4.5t37.5 14.5t26 25.5t9.5 37.5z" />
<glyph unicode="T" horiz-adv-x="615" d="M128 80l115 22v483h-113l-43 -100h-77l19 205h555l22 -204h-76l-44 99h-114v-483l116 -22l-10 -80h-340z" />
<glyph unicode="U" horiz-adv-x="670" d="M219 250q0 -75 29.5 -112t104.5 -37q60 0 93 35.5t33 114.5v342l-64 9v88h228v-91l-59 -13v-338q0 -117 -59 -184.5t-172 -67.5q-75 0 -126 17t-81.5 49.5t-44 79.5t-13.5 106v344l-67 9v89h269v-88l-71 -11v-341z" />
<glyph unicode="V" horiz-adv-x="639" d="M244 690l14 -79l-77 -17l157 -464q3 11 14 42.5l25.5 74.5l30.5 92l33 98l30 89.5t22 67.5l-91 18v78h233v-89l-37 -7l-207 -594h-141l-210 594l-36 7v89h240z" />
<glyph unicode="W" horiz-adv-x="985" d="M988 690v-88l-78 -20l-110 -582h-168l-141 506l-136 -506h-174l-110 587l-55 13v90h244l17 -79l-70 -10l82 -458l154 534h142l149 -548l78 472l-84 13l11 76h249z" />
<glyph unicode="X" horiz-adv-x="594" d="M577 690v-90l-41 -8l-166 -258l78.5 -133.5l64.5 -107.5l64 -22v-71h-271v71l57 6l-90 155l-90 -156l55 -6v-70h-225v71l46 8l157 252l-150 260l-42 12v87h253l14 -78l-70 -15l38 -67l53 -94l100 159l-58 18v77h223z" />
<glyph unicode="Y" horiz-adv-x="583" d="M242 690l15 -79l-71 -14l124 -216l112 219l-61 11v79h221v-88l-44 -11l-178 -340v-155l115 -23l-9 -73h-341l-10 73l114 23v156l-191 339l-40 10v89h244z" />
<glyph unicode="Z" horiz-adv-x="562" d="M28 79l337 506h-221l-19 -110h-78v215h460l20 -93q-13 -22 -35.5 -57l-50 -77.5l-58.5 -89.5l-62.5 -94l-61 -92l-54.5 -82h215l18 110h80v-215h-471z" />
<glyph unicode="[" horiz-adv-x="336" d="M194 640v-742h152v-79q0 -8 -7 -8h-258l-7 12v891l7 12h258q7 0 7 -7v-79h-152z" />
<glyph unicode="\" horiz-adv-x="486" d="M21 676l-1 14h128l318 -677l-3 -13h-125z" />
<glyph unicode="]" horiz-adv-x="336" d="M-10 640v79q0 7 6 7h258l8 -12v-881l-8 -12h-258q-6 0 -6 8v79h151v732h-151z" />
<glyph unicode="^" horiz-adv-x="514" d="M82 561l171 165h37l172 -166l-7 -12h-86l-98 68l-98 -68h-85z" />
<glyph unicode="_" horiz-adv-x="553" d="M0 -86v73l11 13h536q6 0 6 -7v-79h-553z" />
<glyph unicode="`" horiz-adv-x="338" d="M240 447l-183 144l77 91l35 -17l112 -177z" />
<glyph unicode="a" horiz-adv-x="463" d="M395 105q0 -14 5.5 -18t12.5 -4q5 0 9 1t6 1l18 -56q-7 -6 -28 -19.5t-52 -13.5q-30 0 -49.5 13t-30.5 35q-20 -20 -48.5 -34t-63.5 -14t-62 10t-45.5 28t-28 42.5t-9.5 52.5q0 44 23 74t58.5 48.5t79 27t84.5 9.5v79q0 11 -15.5 20.5t-49.5 9.5q-8 0 -16 -0.5t-13 -2.5 l-26 -74l-124 54q10 24 28.5 45t43.5 37t55.5 25.5t65.5 9.5q32 0 63 -8t55 -27t39 -49.5t15 -76.5v-225zM198 92q28 0 48 15t28 32v65q-19 -1 -40 -4t-39 -10.5t-30 -20t-12 -31.5q0 -17 11 -31.5t34 -14.5z" />
<glyph unicode="b" d="M12 648l-11 68l149 20l34 -35v-229q16 8 37 13.5t50 5.5q45 0 81 -16.5t62 -47.5t40 -75.5t14 -100.5q0 -74 -19.5 -123t-51 -78t-71.5 -41.5t-81 -12.5q-57 0 -96 21l-53 -21l-32 27v628zM247 397q-19 0 -35.5 -5t-27.5 -13v-276q9 -6 26.5 -9.5t34.5 -3.5q41 0 70 37.5 t29 118.5q0 78 -27.5 114.5t-69.5 36.5z" />
<glyph unicode="c" horiz-adv-x="431" d="M408 52q-27 -28 -69 -42t-90 -14q-38 0 -77 13.5t-70.5 42.5t-51.5 73.5t-20 107.5q0 75 20 124.5t51.5 79.5t70.5 42t76 12q44 0 74.5 -12t50 -27.5t29.5 -30t13 -19.5l-121 -65l-43 60q-46 0 -71.5 -43t-25.5 -116q0 -29 6.5 -56t20.5 -47t36 -32t53 -12q21 0 39 5.5 t32.5 13t24.5 16l16 13.5q2 -7 6 -19l8 -25t7 -25t5 -18z" />
<glyph unicode="d" horiz-adv-x="514" d="M263 648l-11 68l148 21l35 -37v-595q0 -13 5.5 -17.5t13.5 -4.5t14 2.5t8 3.5l19 -52q-3 -4 -10.5 -11t-19 -13.5t-26.5 -11.5t-33 -5q-30 0 -49 11t-30 31q-36 -42 -106 -42q-41 0 -76 16t-60.5 47t-39.5 75t-14 100q0 76 21 125.5t52.5 79t69 41t69.5 11.5 q21 0 38.5 -3.5t32.5 -9.5v170h-51zM244 91q21 0 43 14t27 35v238q-9 8 -25 14t-34 6t-36 -7t-32 -25.5t-23 -50.5t-9 -82q0 -71 23.5 -106.5t65.5 -35.5z" />
<glyph unicode="e" horiz-adv-x="454" d="M253 491q31 0 61.5 -8t55 -25t39.5 -43t15 -61q0 -42 -17.5 -71.5t-47.5 -48.5t-69.5 -28t-82.5 -9h-27q-13 0 -24 1q3 -23 11 -42.5t22 -33.5t36 -22.5t52 -8.5q46 0 74 17.5t46 34.5l23 -87q-7 -9 -21.5 -19.5t-36 -19.5t-48 -15t-57.5 -6q-43 0 -83.5 15t-72.5 45 t-51.5 75.5t-19.5 107.5q0 66 20 113.5t51.5 78.5t71.5 45.5t80 14.5zM157 282q5 -1 15 -1h18q19 0 39 3.5t36 11.5t26 21t10 33q0 23 -13 34.5t-33 11.5q-18 0 -35 -9t-30.5 -24.5t-22 -36.5t-10.5 -44z" />
<glyph unicode="f" horiz-adv-x="359" d="M220 400v-326l96 -11q0 -19 -0.5 -38t-0.5 -25h-256l-14 63l54 13v324h-72l-15 81l7 10h81v50q0 53 13.5 90t36 60t51.5 33t60 10q15 0 34 -3.5t39.5 -12.5t41 -24.5t38.5 -40.5l-114 -69l-40 55q-23 0 -31.5 -12.5t-8.5 -34.5v-101h114q5 0 5 -6v-85h-119z" />
<glyph unicode="g" horiz-adv-x="503" d="M232 491q35 0 68.5 -11t60.5 -32l109 55l23 -3l11 -99l-93 -11q10 -19 15.5 -41t5.5 -47q0 -45 -17.5 -79t-45.5 -56.5t-64 -33.5t-73 -11h-14q-6 0 -12 1l-18 -27l2 -14l102 -21q157 -33 157 -142q0 -45 -18.5 -80.5t-50 -60t-74 -37.5t-91.5 -13q-45 0 -80.5 11.5 t-60.5 31.5t-38.5 47t-13.5 59q0 48 22.5 79t54.5 50q-24 26 -24 67q0 26 10.5 46.5t26.5 35.5q-35 22 -57 58.5t-22 88.5q0 45 17.5 80.5t45.5 59.5t63.5 36.5t72.5 12.5zM232 397q-20 0 -34 -7.5t-23 -20t-13.5 -28.5t-4.5 -34q0 -36 18 -63.5t57 -27.5q40 0 58 27.5 t18 63.5q0 18 -4.5 34t-13.5 28.5t-23.5 20t-34.5 7.5zM353 -98q0 15 -17.5 23t-44 14t-59 11.5t-62.5 15.5q-22 -14 -30.5 -29t-8.5 -30q0 -10 5 -20.5t18 -19t34.5 -14t53.5 -5.5q21 0 40.5 4t35.5 11t25.5 17t9.5 22z" />
<glyph unicode="h" horiz-adv-x="547" d="M350 331q0 32 -16.5 47t-45.5 15q-15 0 -29 -4t-26 -10t-20.5 -12.5t-11.5 -10.5v-281l57 -11q0 -19 -0.5 -38t-0.5 -26h-222l-12 64l57 13v571h-52l-10 68l148 21l35 -37v-245q19 14 51 25t65 11q31 0 59 -8t49 -24t33.5 -41t12.5 -59v-283l55 -12q0 -19 -0.5 -38 t-0.5 -26h-225v64l50 11v256z" />
<glyph unicode="i" horiz-adv-x="288" d="M68 663q0 29 21.5 50.5t51.5 21.5t51 -21.5t21 -50.5q0 -30 -21 -51.5t-51 -21.5t-51.5 21.5t-21.5 51.5zM209 456v-381l55 -11v-64h-221l-11 64l56 13v321h-51l-11 68q13 2 35 6l44.5 8l41.5 7.5t28 4.5z" />
<glyph unicode="j" horiz-adv-x="264" d="M200 -103q0 -58 -15 -91t-36.5 -49.5t-44 -20.5t-37.5 -4q-25 0 -49 8.5t-45 26.5l54 85q5 -5 12.5 -9t15.5 -4q17 0 20.5 16t3.5 40v503h-51l-11 68l148 26l35 -36v-559zM52 663q0 29 21.5 50.5t50.5 21.5q30 0 51.5 -21.5t21.5 -50.5q0 -30 -21.5 -51.5t-51.5 -21.5 q-29 0 -50.5 21.5t-21.5 51.5z" />
<glyph unicode="k" horiz-adv-x="509" d="M201 700v-428l128 141h-53l-10 78h177l35 -65l-139 -139l107 -214l47 -11q0 -19 0.5 -37t0.5 -25h-151l-93 198l-49 -49v-74l47 -11q0 -19 -0.5 -38t-0.5 -26h-212l-12 64l57 13v571h-52l-10 68l148 21z" />
<glyph unicode="l" horiz-adv-x="284" d="M200 700v-621l65 -16v-63h-231l-11 63l56 14v571h-52l-11 68l149 21z" />
<glyph unicode="m" horiz-adv-x="821" d="M358 331q0 32 -16.5 47t-45.5 15q-15 0 -29 -4t-26 -10t-20.5 -12.5t-11.5 -10.5v-281l57 -12q0 -19 -0.5 -37.5t-0.5 -25.5h-222l-13 63l58 14v321h-51l-11 68q13 2 35 6l44.5 8l41.5 7.5t27 4.5l35 -37q19 14 51 25t65 11q38 0 70 -11.5t53 -35.5q36 26 73 36.5 t76 10.5q31 0 58.5 -8t48 -24t32.5 -41t12 -59v-283l51 -12q0 -19 -0.5 -38t-0.5 -26h-227v63l56 12v256q0 32 -16.5 47t-45.5 15q-15 0 -29 -4t-26 -10t-20.5 -12.5t-11.5 -10.5v-282l53 -10q0 -19 -0.5 -38t-0.5 -26h-220v64l48 11v256z" />
<glyph unicode="n" horiz-adv-x="555" d="M209 455q19 14 51 25t65 11q31 0 59 -8t49 -24t33.5 -41t12.5 -59v-286l55 -9q0 -19 -0.5 -38t-0.5 -26h-225v64l50 11v256q0 32 -16.5 47t-45.5 15q-15 0 -29 -4t-26 -10t-20.5 -12.5t-11.5 -10.5v-281l57 -12q0 -19 -0.5 -37.5t-0.5 -25.5h-222l-11 64l56 13v321h-51 l-11 68q13 2 35 6l44.5 8l41.5 7.5t27 4.5z" />
<glyph unicode="o" d="M29 246q0 61 19 106.5t50 76.5t70.5 46.5t80.5 15.5t81 -15.5t71 -46.5t50 -76.5t19 -106.5t-19 -108t-50 -78.5t-71 -47.5t-81 -16t-80.5 16t-70.5 47.5t-50 78.5t-19 108zM153 240q0 -42 7.5 -70.5t21 -46.5t30.5 -25.5t37 -7.5t37.5 7.5t31 25.5t21 46.5t7.5 70.5 t-7.5 72t-21 49t-31 27.5t-37.5 8.5t-37 -8.5t-30.5 -27.5t-21 -49t-7.5 -72z" />
<glyph unicode="p" horiz-adv-x="515" d="M189 468q17 9 41 16t57 7q45 0 81 -16.5t62 -47.5t40 -75.5t14 -100.5q0 -74 -19.5 -123t-51 -78t-71.5 -41.5t-81 -12.5q-30 0 -60 8v-186l118 -26q0 -19 -0.5 -38.5t-0.5 -26.5h-273l-16 63l51 15v597l-51 -7l-13 72l150 24zM264 397q-19 0 -35.5 -5t-27.5 -13v-276 q9 -6 26 -9.5t34 -3.5q41 0 70 37.5t29 118.5q0 78 -27 114.5t-69 36.5z" />
<glyph unicode="q" d="M435 -181l55 -19v-73h-288l-11 63l123 24v210q-34 -28 -89 -28q-46 0 -82 17.5t-61 49t-38 75t-13 95.5q0 80 23 130.5t55.5 79t68 38.5t59.5 10q31 0 57.5 -5.5t48.5 -15.5l58 23l34 -24v-650zM247 91q22 0 42 16t25 42v228q-8 8 -23.5 14.5t-38.5 6.5q-17 0 -34.5 -6.5 t-31.5 -23.5t-22.5 -46.5t-8.5 -76.5t8.5 -77t21.5 -47t29.5 -23.5t32.5 -6.5z" />
<glyph unicode="r" horiz-adv-x="428" d="M200 439q20 25 48 38.5t54 13.5q44 0 79.5 -20.5t49.5 -66.5l-121 -63l-30 50q-9 0 -21.5 -5.5t-23 -18t-18 -32.5t-7.5 -49v-187q0 -1 15.5 -5.5l36 -10.5l40.5 -11.5t29 -7.5q0 -19 0.5 -38t0.5 -26h-288l-15 64l60 16v321l-51 -4l-11 68q13 2 33.5 6l41 8l38.5 7.5 t26 4.5z" />
<glyph unicode="s" horiz-adv-x="412" d="M145 159l26 -65q6 -2 16.5 -2.5t21.5 -0.5q7 0 16 2.5t16.5 8t12.5 14t5 21.5q0 15 -10.5 25.5t-25.5 17.5t-31 12t-26 10q-70 28 -98 64.5t-28 79.5q0 30 13 56.5t36.5 46t55 31t68.5 11.5q36 0 64.5 -9.5t49 -24t34.5 -32t22 -33.5l-127 -51l-24 51q-2 1 -6 2 q-3 1 -8 2t-10 1q-44 0 -44 -38q0 -15 16 -26t40 -22l52.5 -24t52.5 -31t40 -43.5t16 -62.5t-14.5 -65.5t-39.5 -48t-57 -29.5t-67 -10q-36 0 -66.5 10t-54.5 26.5t-40.5 36.5t-24.5 40z" />
<glyph unicode="t" horiz-adv-x="345" d="M212 400v-261q0 -31 8 -38.5t23 -7.5q9 0 18.5 3t18.5 7.5t16.5 9.5t12.5 9q1 -4 5 -15t8 -23.5l7.5 -24.5t4.5 -18q-14 -15 -46.5 -30t-70.5 -15q-25 0 -47.5 6.5t-40 22.5t-28 43.5t-10.5 69.5v26.5t0.5 59.5t1 82t0.5 94h-76l-15 81l7 10h85q1 61 1 107t1 61l107 23 l9 -16v-175h101q5 0 5 -6v-85h-106z" />
<glyph unicode="u" horiz-adv-x="539" d="M300 398l-12 67l143 27l35 -38v-349q0 -14 5 -18t11 -4q5 0 8.5 1t5.5 1l19 -56q-6 -7 -26.5 -20t-51.5 -13q-26 0 -47.5 11t-33.5 37q-23 -25 -58 -36.5t-68 -11.5q-71 0 -113 36.5t-42 113.5v252h-51l-11 67l148 27l35 -38v-285q0 -39 18.5 -58t49.5 -19q27 0 50 16 t31 36v257z" />
<glyph unicode="v" horiz-adv-x="497" d="M189 0l-132 407h-50l-8 72l168 12l108 -364l104 280h-42l-9 72l148 12l19 -36l-167 -455h-139z" />
<glyph unicode="w" horiz-adv-x="741" d="M132 0l-84 407h-36l-7 72l152 12l69 -360l88 343h143l85 -347l70 280h-35l-8 72l130 12l22 -36l-115 -455h-157l-79 322l-80 -322h-158z" />
<glyph unicode="x" horiz-adv-x="471" d="M26 0v73h42l97 170l-96 175h-42v73h142l87 -156l79 156h110v-73h-42l-98 -171l97 -174h42v-73h-146l-80 145l-80 -145h-112z" />
<glyph unicode="y" horiz-adv-x="498" d="M496 455l-13 -36l-24.5 -69l-32 -91l-36 -103l-36.5 -104.5l-33.5 -95.5l-27.5 -76.5l-17 -46.5q-15 -39 -32.5 -60.5t-35 -32t-32.5 -12.5t-26 -2q-9 0 -23.5 2t-31 7t-34 14t-32.5 23l54 84l12 -10l16 -12t16.5 -10t14.5 -4q16 0 27.5 13t23.5 46l22 60l-169 468h-38 l-8 72l150 12l130 -372l37.5 103.5l33.5 92.5q18 48 33 92h-46l-8 73l146 11z" />
<glyph unicode="z" horiz-adv-x="421" d="M38 96l208 301h-128l-12 -68h-68v162h344v-96l-202 -298h121l12 66h69v-163h-343z" />
<glyph unicode="{" horiz-adv-x="367" d="M2 316q21 0 40.5 6t35.5 18t25.5 29t9.5 39q0 24 -2 48t-2 47q0 42 7 80t26 67t53.5 46t89.5 17q29 0 54 -5t37 -10l-36 -116l-78 33q-20 -8 -25 -38.5t-5 -69.5q0 -24 0.5 -41t0.5 -40q0 -39 -5.5 -65.5t-17 -44t-30 -27t-43.5 -12.5l-8 -3l8 -1q51 -6 73.5 -39 t22.5 -110q0 -23 -0.5 -39t-0.5 -41q0 -19 1 -37t4 -32t9 -24.5t16 -14.5l78 34l36 -117q-12 -5 -37 -10t-54 -5q-56 0 -90 17.5t-53.5 46.5t-26 67t-6.5 80q0 23 2 45.5t2 45.5t-9.5 40.5t-25.5 29.5t-35.5 18t-40.5 6v82z" />
<glyph unicode="|" horiz-adv-x="270" d="M195 689v-890h-120v890h120z" />
<glyph unicode="}" horiz-adv-x="368" d="M366 234q-21 0 -40.5 -6t-35.5 -18t-25.5 -29.5t-9.5 -40.5t2 -45.5t2 -45.5q0 -42 -6.5 -80t-26 -67t-54 -46.5t-89.5 -17.5q-29 0 -54 5t-38 10l37 117l78 -34q19 8 24.5 39t5.5 69q0 25 -0.5 41t-0.5 39q0 77 22.5 110t73.5 39l8 3l-8 1q-26 3 -44 12.5t-29.5 27 t-17 44t-5.5 65.5q0 23 0.5 40t0.5 41q0 39 -5 69.5t-25 38.5l-78 -33l-37 116q13 5 38 10t54 5q55 0 89.5 -17t53.5 -46t26 -67t7 -80q0 -23 -2 -47t-2 -48q0 -22 9.5 -39t25.5 -29t35.5 -18t40.5 -6v-82z" />
<glyph unicode="~" horiz-adv-x="436" d="M343 697l81 -75q-11 -15 -24.5 -29t-29.5 -25.5t-33 -18t-34 -6.5q-24 0 -41 7t-32 15.5t-30.5 15.5t-36.5 7q-29 0 -46 -17t-23 -37l-74 45v18q4 12 14.5 28t26.5 30t38.5 24t52.5 10q26 0 48 -8t39.5 -17t30 -17t19.5 -8z" />
<glyph unicode="&#xa1;" horiz-adv-x="264" d="M168 241l48 -404l-21 -38l-144 14l39 428h78zM63 425q0 28 20 47.5t48 19.5q27 0 46.5 -19.5t19.5 -47.5t-19.5 -47t-46.5 -19q-28 0 -48 19t-20 47z" />
<glyph unicode="&#xa2;" horiz-adv-x="438" d="M303 689v-205q28 -7 47.5 -19t32.5 -25t20 -23.5t9 -14.5l-121 -65l-43 60q-46 0 -71.5 -43t-25.5 -116q0 -29 6.5 -56t20.5 -47t36 -32t53 -12q21 0 39 5.5t32.5 13t24.5 16l16 13.5q2 -7 6 -19l8 -25t7 -25t5 -18q-19 -20 -45 -32.5t-57 -18.5v-201h-121v205 q-31 9 -59 27t-49.5 46t-34 66.5t-12.5 88.5q0 59 13 102.5t34.5 73.5t49.5 48t58 26v206h121z" />
<glyph unicode="&#xa3;" horiz-adv-x="528" d="M283 318q-5 -48 -15 -93.5t-24 -81.5q24 -5 47 -12l42.5 -13.5t35 -11t24.5 -4.5l36 42l69 -110q-20 -22 -52 -30t-61 -8q-33 0 -62.5 7t-55.5 15.5l-49 15.5t-42 7q-35 0 -51.5 -14t-21.5 -31l-75 7l-3 45q8 18 19 32.5t23 27.5q40 42 60 97t28 113h-65v86l8 9h64 q1 9 1 18v20q0 14 -0.5 28.5t-0.5 28.5q0 51 15 86.5t39.5 57t55 31t61.5 9.5q24 0 46.5 -6t41 -14.5t32 -17.5t21.5 -15l-91 -101l-42 48q-18 0 -28 -6t-14.5 -18.5t-5.5 -31.5t-1 -45v-37q0 -17 -1 -35h125q7 0 7 -8v-87h-140z" />
<glyph unicode="&#xa4;" horiz-adv-x="585" d="M97 346q0 56 26 100l-79 79l75 75l80 -81q21 11 44.5 17.5t49.5 6.5t49.5 -6.5t44.5 -17.5l80 81l75 -75l-80 -80q13 -22 20 -47t7 -52q0 -52 -25 -96l78 -78l-75 -74l-77 77q-45 -25 -97 -25q-53 0 -97 25l-77 -77l-75 74l78 78q-25 44 -25 96zM201 346q0 -41 25 -66.5 t67 -25.5q41 0 66 25.5t25 66.5t-25 66.5t-66 25.5q-42 0 -67 -25.5t-25 -66.5z" />
<glyph unicode="&#xa5;" horiz-adv-x="634" d="M269 691l15 -79l-71 -14l125 -180l111 183l-61 11v79h221v-88l-44 -11l-170 -277h99v-89h-107v-14h107v-89h-107v-27l115 -23l-9 -73h-341l-10 73l114 23v27h-117v89h117v14h-117v89h109l-183 277l-40 10v89h244z" />
<glyph unicode="&#xa6;" horiz-adv-x="275" d="M77 286v404h121v-404h-121zM77 -247v399h121v-399h-121z" />
<glyph unicode="&#xa7;" horiz-adv-x="512" d="M470 249q0 -32 -14.5 -60t-37.5 -50q24 -23 34.5 -49t10.5 -60q0 -53 -20.5 -89t-54 -59t-76.5 -33t-89 -10q-58 0 -104 13t-87 29l20 194l84 -8l9 -121q20 -5 38.5 -8.5t44.5 -3.5q44 0 71.5 17t27.5 52q0 28 -20.5 46.5t-51 33.5t-66.5 30t-66.5 36.5t-51 51.5 t-20.5 75q0 35 16 62.5t41 48.5q-25 23 -40.5 53t-15.5 72q0 38 15.5 71t44 57t68.5 38t88 14q54 0 102 -8t87 -19l15 -191h-84l-45 115q-13 3 -31.5 5.5t-38.5 2.5q-42 0 -63 -19.5t-21 -47.5q0 -23 11.5 -39t31 -28.5t46 -24.5l57.5 -26q42 -20 68.5 -39.5t41 -39.5 t20 -41t5.5 -43zM267 303l-30.5 13l-34.5 15q-15 -17 -15 -39q0 -16 12 -28t31 -22t41 -18.5t43 -18.5q2 -2 3 -2q7 7 12 15.5t5 18.5q0 22 -16.5 35.5t-50.5 30.5z" />
<glyph unicode="&#xa8;" horiz-adv-x="417" d="M52 531q0 29 20 49t48 20q29 0 49 -20t20 -49t-20 -48.5t-49 -19.5q-28 0 -48 19.5t-20 48.5zM230 531q0 29 19.5 49t48.5 20t48 -20t19 -49t-19 -48.5t-48 -19.5t-48.5 19.5t-19.5 48.5z" />
<glyph unicode="&#xa9;" horiz-adv-x="752" d="M30 373q0 71 27 134t74 110t110 74.5t134 27.5t134 -27.5t110.5 -74.5t75 -110t27.5 -134t-27.5 -134t-75 -110t-110.5 -74.5t-134 -27.5t-134 27.5t-110 74.5t-74 110t-27 134zM160 374q0 -45 17 -84.5t46.5 -69t69 -46.5t83.5 -17q45 0 84 17t68 46.5t46 69t17 84.5 q0 44 -17 83t-46 68.5t-68 46.5t-84 17q-44 0 -83.5 -17t-69 -46.5t-46.5 -68.5t-17 -83zM482 220q-17 -11 -41 -20t-53 -9q-38 0 -71.5 13t-59 36.5t-40 56.5t-14.5 74q0 45 15 80t40 59t58.5 36t70.5 12q23 0 39.5 -2t27.5 -4l9 -139h-55l-15 46q-5 1 -9 1h-7 q-40 0 -60 -24.5t-20 -62.5q0 -37 26.5 -60.5t60.5 -23.5q19 0 35 5.5t28 11.5z" />
<glyph unicode="&#xaa;" horiz-adv-x="385" d="M320 591q-1 -1 -1 -6v-43v-27.5v-15.5t0.5 -6.5t1.5 -1.5h7q4 0 8 1t6 1l18 -60q-7 -6 -25.5 -17.5t-44.5 -11.5q-20 0 -35.5 8.5t-26.5 22.5q-14 -15 -36 -24.5t-54 -9.5q-17 0 -36 6t-34.5 17.5t-25.5 29t-10 41.5q0 34 17 54t43 31t57 14.5t60 3.5v12q0 10 -6.5 22.5 t-25.5 12.5q-5 0 -10 -0.5t-12 -4.5l-9 -23l-113 26q9 24 24.5 39.5t35 25t41 13t42.5 3.5q41 0 69 -10.5t44.5 -28.5t23.5 -42.5t7 -51.5zM164 482q18 0 28.5 5.5t16.5 13.5v44q-12 0 -25 -1t-23.5 -4.5t-17.5 -10.5t-7 -19q0 -8 6 -18t22 -10z" />
<glyph unicode="&#xab;" horiz-adv-x="469" d="M281 486l-148 -149l147 -147l-66 -67l-213 216l213 214zM436 465l-127 -128l126 -126l-66 -67l-193 195l193 193z" />
<glyph unicode="&#xac;" horiz-adv-x="572" d="M411 375h-370v93l10 12h452l13 -13v-200q0 -7 -8 -7h-97v115z" />
<glyph unicode="&#xad;" horiz-adv-x="429" d="M459 314h-489v105h489v-105z" />
<glyph unicode="&#xae;" horiz-adv-x="752" d="M30 373q0 71 27 134t74 110t110 74.5t134 27.5t134 -27.5t110.5 -74.5t75 -110t27.5 -134t-27.5 -134t-75 -110t-110.5 -74.5t-134 -27.5t-134 27.5t-110 74.5t-74 110t-27 134zM160 374q0 -45 17 -84.5t46.5 -69t69 -46.5t83.5 -17q45 0 84 17t68 46.5t46 69t17 84.5 q0 44 -17 83t-46 68.5t-68 46.5t-84 17q-44 0 -83.5 -17t-69 -46.5t-46.5 -68.5t-17 -83zM247 259l20 8v202q-10 1 -13.5 1.5t-7.5 1.5v68h107q45 0 75 -10t48.5 -26.5t26 -37.5t7.5 -43q0 -62 -48 -92l23 -62l27 -4v-57h-99l-30 99q-9 -1 -18 -1h-19v-38l41 -11v-49h-138z M346 379q26 0 42 3.5t24.5 9.5t11 14t2.5 17q0 19 -16 31t-64 12v-87z" />
<glyph unicode="&#xaf;" horiz-adv-x="443" d="M57 726h329v-97h-329v97z" />
<glyph unicode="&#xb0;" horiz-adv-x="346" d="M28 564q0 34 10.5 63.5t29.5 51t45.5 33.5t58.5 12t59 -12t46.5 -33.5t30 -51t10.5 -63.5q0 -36 -10.5 -66t-30 -51.5t-46.5 -33.5t-59 -12q-65 0 -104.5 45t-39.5 118zM133 564q0 -8 1 -20.5t4.5 -24t11.5 -20t22 -8.5t22 8.5t12.5 20t5.5 24t1 20.5t-1 19.5t-5.5 22.5 t-12.5 19t-22 8t-22 -8t-11.5 -19t-4.5 -22.5t-1 -19.5z" />
<glyph unicode="&#xb1;" horiz-adv-x="453" d="M271 517v-116h133v-97h-133v-117h-94v117h-131v74l16 23h115v116h94zM404 51h-358v74l16 23h342v-97z" />
<glyph unicode="&#xb2;" horiz-adv-x="336" d="M58 402l-17 59q9 10 33 29t48.5 41t43.5 45.5t19 42.5q0 20 -10.5 26t-21.5 6q-5 0 -9 -1l-8 -2l-20 -41l-89 28q9 23 24.5 40.5t34.5 29t41 17.5t43 6q20 0 41 -6t38.5 -18t29 -31t11.5 -46q0 -32 -14.5 -56.5t-34.5 -42.5t-40.5 -30.5t-32.5 -20.5h57l18 36h53 l-11 -111h-227z" />
<glyph unicode="&#xb3;" horiz-adv-x="323" d="M62 511q14 -14 35 -24.5t48 -10.5q18 0 29 9t11 23q0 17 -13.5 24.5t-59.5 7.5v52q22 0 35 3.5t20 9t9 12.5t2 13q0 9 -7.5 15.5t-18.5 6.5q-10 0 -14.5 -1.5t-8.5 -2.5l-15 -27l-83 29q17 41 54.5 59.5t81.5 18.5q23 0 44 -6.5t37 -18.5t25.5 -28t9.5 -35 q0 -34 -17.5 -49.5t-36.5 -20.5q8 -2 19 -6t20 -12.5t15.5 -22t6.5 -32.5q0 -27 -12 -45.5t-32 -29.5t-46 -15.5t-53 -4.5q-40 0 -73 14.5t-46 26.5z" />
<glyph unicode="&#xb4;" horiz-adv-x="348" d="M52 513l129 164l37 15l78 -109l-197 -124z" />
<glyph unicode="&#xb5;" horiz-adv-x="562" d="M88 -274v672h-53l-10 67l150 27l34 -34v-307q4 -30 22 -44.5t45 -14.5t50 16t31 36v257l-45 -3l-11 67l142 27l35 -38v-349q0 -14 5 -18t11 -4q5 0 8.5 1t5.5 1l19 -56q-6 -7 -26 -20t-51 -13q-26 0 -47.5 10.5t-33.5 36.5q-23 -25 -51 -36t-56 -11q-14 0 -28.5 2 t-28.5 5q2 -12 3 -24t1 -20v-233h-121z" />
<glyph unicode="&#x3bc;" horiz-adv-x="562" d="M88 -274v672h-53l-10 67l150 27l34 -34v-307q4 -30 22 -44.5t45 -14.5t50 16t31 36v257l-45 -3l-11 67l142 27l35 -38v-349q0 -14 5 -18t11 -4q5 0 8.5 1t5.5 1l19 -56q-6 -7 -26 -20t-51 -13q-26 0 -47.5 10.5t-33.5 36.5q-23 -25 -51 -36t-56 -11q-14 0 -28.5 2 t-28.5 5q2 -12 3 -24t1 -20v-233h-121z" />
<glyph unicode="&#xb6;" horiz-adv-x="656" d="M430 0v591h-53v-487q0 -15 -8.5 -31t-22 -32t-32 -31t-37.5 -27l-80 105l62 42v169q-54 1 -97 16.5t-73 42t-46 62.5t-16 80q0 32 11.5 66t37.5 61.5t68 45.5t102 18h349v-100h-34v-591h-131z" />
<glyph unicode="&#xb7;" horiz-adv-x="243" d="M54 399h118l18 -20v-155h-136v175z" />
<glyph unicode="&#xb8;" horiz-adv-x="415" d="M134 -82l34 97h103l-18 -56q20 -4 38.5 -12.5t33 -22t23.5 -33.5t9 -47q0 -26 -11 -49.5t-32.5 -41.5t-52 -28.5t-69.5 -10.5q-42 0 -72.5 9t-55.5 18l50 97l72 -48q7 0 18 2.5t21 8.5t17 16t7 24q0 23 -17.5 40t-60.5 17l-13 1z" />
<glyph unicode="&#xb9;" horiz-adv-x="260" d="M46 447l38 8v197l-49 -8l-9 45l149 38l17 -12l-3 -48v-209l37 -9v-47h-177z" />
<glyph unicode="&#xba;" horiz-adv-x="354" d="M30 563q0 84 39.5 123.5t106.5 39.5t107.5 -39.5t40.5 -123.5q0 -82 -40.5 -123t-107.5 -41t-106.5 41t-39.5 123zM135 561q0 -32 6.5 -50.5t34.5 -18.5t35.5 18.5t7.5 50.5q0 31 -7.5 51t-35.5 20t-34.5 -20t-6.5 -51z" />
<glyph unicode="&#xbb;" horiz-adv-x="469" d="M256 553l213 -216l-213 -214l-66 67l147 147l-148 149zM100 532l193 -195l-193 -193l-66 67l126 126l-127 128z" />
<glyph unicode="&#xbc;" horiz-adv-x="757" d="M254 0h-125l-3 13l318 678h128l-1 -14zM725 101h-45v-35l46 -8v-58h-240l-6 49l84 14v38h-170v80l170 219h116v-215h45v-84zM45 371l46 7v230l-54 -8l-8 66l164 48l13 -12v-321l42 -8v-58h-203v56zM564 185v84l-74 -84h74z" />
<glyph unicode="&#xbd;" horiz-adv-x="784" d="M472 -1l-19 69q7 9 22.5 25l34.5 36l39 41.5t36 42.5t26.5 38.5t10.5 28.5t-6.5 17.5t-17.5 6.5q-13 0 -18 -2l-18 -53l-117 45q26 56 68 80.5t85 24.5q27 0 53 -5.5t45.5 -18.5t31.5 -35.5t12 -55.5q0 -28 -15.5 -59t-36.5 -58.5t-42.5 -48.5t-33.5 -30h67l24 61h52 l-16 -150h-267zM263 0h-125l-3 13l318 678h128l-1 -14zM45 371l46 7v230l-54 -8l-8 66l164 48l13 -12v-321l38 -8v-58h-199v56z" />
<glyph unicode="&#xbe;" horiz-adv-x="805" d="M317 0h-125l-3 13l318 678h128l-1 -14zM771 101h-45v-35l46 -8v-58h-240l-6 49l84 14v38h-170v80l177 219h109v-215h45v-84zM332 607q0 -28 -13 -51.5t-36 -32.5l17.5 -11t18 -15.5t14.5 -23t6 -32.5q0 -33 -13 -57t-35.5 -40t-52.5 -23.5t-64 -7.5q-53 0 -87 17.5 t-50 32.5l57 81q20 -19 42 -28t37 -9q14 0 29 8t15 28t-12.5 29.5t-42.5 9.5q-5 0 -9.5 -0.5t-9.5 -0.5v73q4 0 7.5 -0.5t7.5 -0.5q57 0 57 36q0 12 -9.5 22t-28.5 10q-11 0 -16 -2t-9 -4l-18 -50l-108 40q9 28 26.5 48.5t39.5 34t47.5 20.5t51.5 7q28 0 53.5 -5.5t45 -18 t31 -33.5t11.5 -51zM610 185v84l-74 -84h74z" />
<glyph unicode="&#xbf;" horiz-adv-x="407" d="M295 253q2 -5 5.5 -25.5t3.5 -42.5q0 -30 -10.5 -52t-27 -38.5t-35 -30.5t-35 -28t-27 -31t-10.5 -39q0 -32 18 -48.5t46 -16.5q18 0 32.5 2.5t20.5 6.5l26 95h71l-16 -175q-32 -11 -68.5 -21.5t-87.5 -10.5q-44 0 -77.5 12.5t-56 33.5t-34 48.5t-11.5 57.5q0 44 13 75.5 t32 55t41.5 42t41.5 36.5t32 37.5t13 46.5v9zM312 425q0 -28 -19.5 -47t-47.5 -19t-47 19t-19 47t19 47.5t47 19.5t47.5 -19.5t19.5 -47.5z" />
<glyph unicode="&#xc0;" horiz-adv-x="621" d="M349 0v75l80 21l-36 122h-196l-38 -126l88 -16v-76h-239l-13 78l55 18l198 595h124l201 -595l46 -18l-10 -78h-260zM228 323h121l-53 226zM377 724l-183 144l77 91l35 -17l112 -177z" />
<glyph unicode="&#xc1;" horiz-adv-x="621" d="M349 0v75l80 21l-36 122h-196l-38 -126l88 -16v-76h-239l-13 78l55 18l198 595h124l201 -595l46 -18l-10 -78h-260zM228 323h121l-53 226zM187 795l129 164l37 15l78 -109l-197 -124z" />
<glyph unicode="&#xc2;" horiz-adv-x="621" d="M115 737l171 166h37l172 -167l-8 -12h-86l-97 58l-98 -58h-85zM349 0v75l80 21l-36 122h-196l-38 -126l88 -16v-76h-239l-13 78l55 18l198 595h124l201 -595l46 -18l-10 -78h-260zM228 323h121l-53 226z" />
<glyph unicode="&#xc3;" horiz-adv-x="621" d="M433 881l81 -76q-22 -30 -55 -54t-68 -24q-23 0 -39.5 7t-31.5 15.5t-30.5 15.5t-36.5 7q-29 0 -46 -17.5t-23 -36.5l-74 44v19q4 12 14.5 28t26.5 30t38.5 24t52.5 10q26 0 48 -8t39.5 -17t30 -17t19.5 -8zM349 0v75l80 21l-36 122h-196l-38 -126l88 -16v-76h-239 l-13 78l55 18l198 595h124l201 -595l46 -18l-10 -78h-260zM228 323h121l-53 226z" />
<glyph unicode="&#xc4;" horiz-adv-x="621" d="M349 0v75l80 21l-36 122h-196l-38 -126l88 -16v-76h-239l-13 78l55 18l198 594h124l201 -594l46 -18l-10 -78h-260zM228 323h121l-53 225zM155 804q0 29 20 49t48 20q29 0 49 -20t20 -49t-20 -48.5t-49 -19.5q-28 0 -48 19.5t-20 48.5zM333 804q0 29 19.5 49t48.5 20 t48 -20t19 -49t-19 -48.5t-48 -19.5t-48.5 19.5t-19.5 48.5z" />
<glyph unicode="&#xc5;" horiz-adv-x="617" d="M347 0v75l80 21l-36 122h-196l-38 -126l88 -16v-76h-239l-13 78l55 18l186 560q-18 14 -28.5 36t-10.5 48q0 22 8 41.5t22.5 34t33.5 22.5t42 8q22 0 41.5 -8t33.5 -22.5t22.5 -34t8.5 -41.5t-7.5 -41t-21.5 -33l193 -570l46 -18l-10 -78h-260zM226 323h121l-53 226z M262 740q0 -18 10 -28.5t29 -10.5q18 0 28 10.5t10 28.5t-10 28.5t-28 10.5q-19 0 -29 -10.5t-10 -28.5z" />
<glyph unicode="&#xc6;" horiz-adv-x="803" d="M1 0l-13 78l53 18l225 595h479l20 -204h-79l-40 99h-162v-178h152v-105h-152v-198h169l37 99h78l-21 -204h-434l-15 88l55 13v159h-138l-63 -168l88 -16v-76h-239zM342 596l-87 -231h98v230z" />
<glyph unicode="&#xc7;" horiz-adv-x="589" d="M272 -82l29 83q-57 9 -106 34.5t-86 67.5t-58 99.5t-21 131.5q0 88 28.5 154.5t75 111.5t105.5 68t121 23q67 0 109.5 -9.5t59.5 -14.5l20 -207h-81l-32 71l-16.5 37t-7.5 14t-3 2q-7 1 -15 1.5t-24 0.5q-42 0 -79 -16.5t-64.5 -47.5t-44 -75t-16.5 -99q0 -54 14.5 -99.5 t41.5 -78t65 -51t85 -18.5q41 0 82 15t70 44l42 -89q-23 -28 -67.5 -47.5t-95.5 -25.5l-12 -39q20 -4 38.5 -12.5t33 -22t23.5 -33.5t9 -47q0 -26 -11 -49.5t-32.5 -41.5t-52 -28.5t-69.5 -10.5q-42 0 -72.5 9t-55.5 18l50 97l72 -48q7 0 18 2.5t21 8.5t17 16t7 24 q0 23 -17.5 40t-60.5 17l-13 1z" />
<glyph unicode="&#xc8;" horiz-adv-x="555" d="M497 691l19 -204h-78l-41 99h-162v-178h152v-105h-152v-198h169l37 99h79l-21 -204h-446l-14 88l65 13v494l-63 7v89h456zM353 724l-183 144l77 91l35 -17l112 -177z" />
<glyph unicode="&#xc9;" horiz-adv-x="555" d="M497 690l19 -204h-78l-41 99h-162v-178h152v-105h-152v-197h169l37 99h79l-21 -204h-446l-14 88l65 13v493l-63 7v89h456zM205 795l129 164l37 15l78 -109l-197 -124z" />
<glyph unicode="&#xca;" horiz-adv-x="555" d="M92 737l171 166h37l172 -167l-7 -12h-86l-98 58l-97 -58h-85zM497 691l19 -204h-78l-41 99h-162v-178h152v-105h-152v-198h169l37 99h79l-21 -204h-446l-14 88l65 13v494l-63 7v89h456z" />
<glyph unicode="&#xcb;" horiz-adv-x="555" d="M497 691l19 -204h-78l-41 99h-162v-178h152v-105h-152v-198h169l37 99h79l-21 -204h-446l-14 88l65 13v494l-63 7v89h456zM131 804q0 29 20 49t48 20q29 0 49 -20t20 -49t-20 -48.5t-49 -19.5q-28 0 -48 19.5t-20 48.5zM309 804q0 29 19.5 49t48.5 20t48 -20t19 -49 t-19 -48.5t-48 -19.5t-48.5 19.5t-19.5 48.5z" />
<glyph unicode="&#xcc;" horiz-adv-x="348" d="M37 89l70 13v491l-68 7v91h260l15 -93l-76 -12v-487l74 -12v-19q0 -13 -0.5 -27t-0.5 -26v-15h-260zM241 724l-183 144l77 91l35 -17l112 -177z" />
<glyph unicode="&#xcd;" horiz-adv-x="348" d="M37 89l70 13v491l-68 7v91h260l15 -93l-76 -12v-487l74 -12v-19q0 -13 -0.5 -27t-0.5 -26v-15h-260zM71 795l129 164l37 15l78 -109l-197 -124z" />
<glyph unicode="&#xce;" horiz-adv-x="348" d="M37 89l70 13v491l-68 7v91h260l15 -93l-76 -12v-487l74 -12v-19q0 -13 -0.5 -27t-0.5 -26v-15h-260zM-14 737l171 166h37l172 -167l-7 -12h-86l-98 58l-98 -58h-85z" />
<glyph unicode="&#xcf;" horiz-adv-x="348" d="M37 89l70 13v491l-68 7v91h260l15 -93l-76 -12v-487l74 -12v-19q0 -13 -0.5 -27t-0.5 -26v-15h-260zM23 804q0 29 20 49t48 20q29 0 49 -20t20 -49t-20 -48.5t-49 -19.5q-28 0 -48 19.5t-20 48.5zM201 804q0 29 19.5 49t48.5 20t48 -20t19 -49t-19 -48.5t-48 -19.5 t-48.5 19.5t-19.5 48.5z" />
<glyph unicode="&#xd0;" horiz-adv-x="639" d="M41 88l65 13v208h-92v82l14 12h78v192l-63 8v88h179q91 0 162.5 -21t121 -63t76 -105.5t26.5 -147.5q0 -169 -87 -261.5t-256 -92.5h-217zM237 309v-204q5 0 9.5 -0.5t9.5 -0.5q106 0 161 63t55 184q0 119 -60 177t-175 58v-183h125q7 0 7 -7v-87h-132z" />
<glyph unicode="&#xd1;" horiz-adv-x="727" d="M211 562v-458l51 -16v-23q0 -14 -0.5 -27.5t-0.5 -24.5v-13h-208l-16 87l69 13v490l-64 7v93h256l227 -594v496l-58 7v91h215l15 -93l-67 -12v-585h-202zM486 881l81 -76q-22 -30 -55 -54t-68 -24q-23 0 -39.5 7t-31.5 15.5t-30.5 15.5t-36.5 7q-29 0 -46 -17.5 t-23 -36.5l-74 44v19q4 12 14.5 28t26.5 30t38.5 24t52.5 10q26 0 48 -8t39.5 -17t30 -17t19.5 -8z" />
<glyph unicode="&#xd2;" horiz-adv-x="655" d="M328 -4q-71 0 -125.5 26t-91.5 72t-56 110t-19 141t19 141t56 110t91.5 71.5t125.5 25.5t125.5 -25.5t91 -71.5t55.5 -110t19 -141t-19 -141t-55.5 -110t-91 -72t-125.5 -26zM173 343q0 -51 11 -95t31 -77t48.5 -51.5t64.5 -18.5q35 0 63.5 18.5t48.5 51.5t31 77t11 95 t-11 96t-31 78t-48.5 52t-63.5 19q-36 0 -64.5 -19t-48.5 -52t-31 -78t-11 -96zM388 724l-183 144l77 91l35 -17l112 -177z" />
<glyph unicode="&#xd3;" horiz-adv-x="655" d="M328 -4q-71 0 -125.5 26t-91.5 72t-56 110t-19 141t19 141t56 110t91.5 71.5t125.5 25.5t125.5 -25.5t91 -71.5t55.5 -110t19 -141t-19 -141t-55.5 -110t-91 -72t-125.5 -26zM173 343q0 -51 11 -95t31 -77t48.5 -51.5t64.5 -18.5q35 0 63.5 18.5t48.5 51.5t31 77t11 95 t-11 96t-31 78t-48.5 52t-63.5 19q-36 0 -64.5 -19t-48.5 -52t-31 -78t-11 -96zM229 795l129 164l37 15l78 -109l-197 -124z" />
<glyph unicode="&#xd4;" horiz-adv-x="655" d="M147 737l171 166h37l172 -167l-7 -12h-86l-98 58l-98 -58h-85zM328 -4q-71 0 -125.5 26t-91.5 72t-56 110t-19 141t19 141t56 110t91.5 71.5t125.5 25.5t125.5 -25.5t91 -71.5t55.5 -110t19 -141t-19 -141t-55.5 -110t-91 -72t-125.5 -26zM173 343q0 -51 11 -95t31 -77 t48.5 -51.5t64.5 -18.5q35 0 63.5 18.5t48.5 51.5t31 77t11 95t-11 96t-31 78t-48.5 52t-63.5 19q-36 0 -64.5 -19t-48.5 -52t-31 -78t-11 -96z" />
<glyph unicode="&#xd5;" horiz-adv-x="655" d="M443 881l81 -76q-21 -30 -54 -54t-69 -24q-23 0 -39.5 7t-31.5 15.5t-30.5 15.5t-36.5 7q-29 0 -45.5 -17.5t-23.5 -36.5l-73 44v19q4 12 14 28t26 30t38.5 24t52.5 10q26 0 48.5 -8t40 -17t30 -17t19.5 -8zM328 -4q-71 0 -125.5 26t-91.5 72t-56 110t-19 141t19 141 t56 110t91.5 71.5t125.5 25.5t125.5 -25.5t91 -71.5t55.5 -110t19 -141t-19 -141t-55.5 -110t-91 -72t-125.5 -26zM173 343q0 -51 11 -95t31 -77t48.5 -51.5t64.5 -18.5q35 0 63.5 18.5t48.5 51.5t31 77t11 95t-11 96t-31 78t-48.5 52t-63.5 19q-36 0 -64.5 -19t-48.5 -52 t-31 -78t-11 -96z" />
<glyph unicode="&#xd6;" horiz-adv-x="655" d="M328 -4q-71 0 -125.5 26t-91.5 72t-56 110t-19 141t19 141t56 110t91.5 71.5t125.5 25.5t125.5 -25.5t91 -71.5t55.5 -110t19 -141t-19 -141t-55.5 -110t-91 -72t-125.5 -26zM173 343q0 -51 11 -95t31 -77t48.5 -51.5t64.5 -18.5q35 0 63.5 18.5t48.5 51.5t31 77t11 95 t-11 96t-31 78t-48.5 52t-63.5 19q-36 0 -64.5 -19t-48.5 -52t-31 -78t-11 -96zM174 804q0 29 20 49t48 20q29 0 49 -20t20 -49t-20 -48.5t-49 -19.5q-28 0 -48 19.5t-20 48.5zM352 804q0 29 19.5 49t48.5 20t48 -20t19 -49t-19 -48.5t-48 -19.5t-48.5 19.5t-19.5 48.5z" />
<glyph unicode="&#xd7;" horiz-adv-x="465" d="M35 201l127 127l-127 127l70 70l127 -127l127 128l71 -70l-127 -128l127 -126l-71 -71l-127 126l-127 -127z" />
<glyph unicode="&#xd8;" horiz-adv-x="655" d="M328 -4q-50 0 -94 14l-33 -73h-125l-4 23l53 117q-45 47 -67 115t-22 153q0 77 19 141t56 110t91.5 71.5t125.5 25.5q40 0 75 -9l33 73h127v-24l-48 -106q51 -46 77.5 -118.5t26.5 -163.5q0 -77 -19 -141t-55.5 -110t-91 -72t-125.5 -26zM482 343q0 86 -29 149l-173 -381 q21 -10 48 -10q35 0 63.5 18.5t48.5 51.5t31 77t11 95zM173 343q0 -68 18 -122l166 363q-13 4 -29 4q-36 0 -64.5 -19t-48.5 -52t-31 -78t-11 -96z" />
<glyph unicode="&#xd9;" horiz-adv-x="670" d="M219 250q0 -75 29.5 -112t104.5 -37q60 0 93 35.5t33 114.5v343l-64 9v88h228v-91l-59 -13v-339q0 -117 -59 -184.5t-172 -67.5q-75 0 -126 17t-81.5 49.5t-44 79.5t-13.5 106v345l-67 9v89h269v-88l-71 -11v-342zM395 724l-183 144l77 91l35 -17l112 -177z" />
<glyph unicode="&#xda;" horiz-adv-x="670" d="M219 250q0 -75 29.5 -112t104.5 -37q60 0 93 35.5t33 114.5v343l-64 9v88h228v-91l-59 -13v-339q0 -117 -59 -184.5t-172 -67.5q-75 0 -126 17t-81.5 49.5t-44 79.5t-13.5 106v345l-67 9v89h269v-88l-71 -11v-342zM247 795l129 164l37 15l78 -109l-197 -124z" />
<glyph unicode="&#xdb;" horiz-adv-x="670" d="M151 737l171 166h37l172 -167l-7 -12h-86l-98 58l-98 -58h-85zM219 250q0 -75 29.5 -112t104.5 -37q60 0 93 35.5t33 114.5v343l-64 9v88h228v-91l-59 -13v-339q0 -117 -59 -184.5t-172 -67.5q-75 0 -126 17t-81.5 49.5t-44 79.5t-13.5 106v345l-67 9v89h269v-88l-71 -11 v-342z" />
<glyph unicode="&#xdc;" horiz-adv-x="670" d="M219 250q0 -75 29.5 -112t104.5 -37q60 0 93 35.5t33 114.5v342l-64 9v88h228v-91l-59 -13v-338q0 -117 -59 -184.5t-172 -67.5q-75 0 -126 17t-81.5 49.5t-44 79.5t-13.5 106v344l-67 9v89h269v-88l-71 -11v-341zM193 804q0 29 20 49t48 20q29 0 49 -20t20 -49 t-20 -48.5t-49 -19.5q-28 0 -48 19.5t-20 48.5zM371 804q0 29 19.5 49t48.5 20t48 -20t19 -49t-19 -48.5t-48 -19.5t-48.5 19.5t-19.5 48.5z" />
<glyph unicode="&#xdd;" horiz-adv-x="583" d="M242 691l15 -79l-71 -14l124 -216l112 219l-61 11v79h221v-88l-44 -11l-178 -341v-155l115 -23l-9 -73h-341l-10 73l114 23v156l-191 340l-40 10v89h244zM232 795l129 164l37 15l78 -109l-197 -124z" />
<glyph unicode="&#xde;" horiz-adv-x="556" d="M40 89l68 13v491l-68 7v91h261l14 -93l-75 -12v-28q9 0 18.5 0.5t17.5 0.5q67 0 117.5 -15t84.5 -42.5t50.5 -65.5t16.5 -84t-16.5 -84t-49.5 -65t-83 -42t-117 -15h-19q-9 0 -20 1v-48l114 -12v-87h-314v89zM409 352q0 21 -6.5 39t-25.5 31.5t-52 21.5t-85 9v-202 q52 0 85 8t52 21.5t25.5 32t6.5 39.5z" />
<glyph unicode="&#xdf;" horiz-adv-x="562" d="M79 531q0 95 53.5 149.5t147.5 54.5q42 0 78.5 -9t63.5 -30t42.5 -54.5t15.5 -81.5q0 -45 -15.5 -74t-33.5 -47.5t-33.5 -30.5t-15.5 -24q0 -8 4 -14.5t12 -13.5t21 -15.5t30 -21.5q29 -21 48 -40.5t30 -38t15.5 -38t4.5 -40.5q0 -38 -14 -68.5t-38.5 -52.5t-58.5 -33.5 t-74 -11.5q-49 0 -78 9.5l-45 14.5l51 121l56 -51q4 0 16 2t25 9.5t23.5 21t10.5 36.5q0 25 -11.5 43.5t-28.5 34t-37.5 29.5t-37.5 30t-28.5 35.5t-11.5 45.5q0 33 14 53.5t31.5 37.5t31.5 37t14 53q0 34 -20.5 58t-54.5 24q-24 0 -39.5 -9t-25 -24t-13.5 -34.5t-4 -40.5 v-532h-164l-7 72l50 11v448v0z" />
<glyph unicode="&#xe0;" horiz-adv-x="463" d="M395 330q0 46 -15 76.5t-39 49.5t-55 27t-63 8q-35 0 -65.5 -9.5t-55.5 -25.5t-43.5 -37t-28.5 -45l124 -54l26 74q5 2 13 2.5t16 0.5q34 0 49.5 -9.5t15.5 -20.5v-79q-41 -1 -84.5 -9.5t-79 -27t-58.5 -48.5t-23 -74q0 -28 9.5 -52.5t28 -42.5t45.5 -28t62 -10t63.5 14 t48.5 34q11 -22 30.5 -35t49.5 -13q31 0 52 13.5t28 19.5l-18 56q-2 0 -6 -1t-9 -1q-7 0 -12.5 4t-5.5 18v225zM198 92q-23 0 -34 14.5t-11 31.5q0 19 12 31.5t30 20t39 10.5t40 4v-65q-8 -17 -28 -32t-48 -15zM282 509l-193 121l77 106l36 -14l126 -161z" />
<glyph unicode="&#xe1;" horiz-adv-x="463" d="M395 105q0 -14 5.5 -18t12.5 -4q5 0 9 1t6 1l18 -56q-7 -6 -28 -19.5t-52 -13.5q-30 0 -49.5 13t-30.5 35q-20 -20 -48.5 -34t-63.5 -14t-62 10t-45.5 28t-28 42.5t-9.5 52.5q0 44 23 74t58.5 48.5t79 27t84.5 9.5v79q0 11 -15.5 20.5t-49.5 9.5q-8 0 -16 -0.5t-13 -2.5 l-26 -74l-124 54q10 24 28.5 45t43.5 37t55.5 25.5t65.5 9.5q32 0 63 -8t55 -27t39 -49.5t15 -76.5v-225zM198 92q28 0 48 15t28 32v65q-19 -1 -40 -4t-39 -10.5t-30 -20t-12 -31.5q0 -17 11 -31.5t34 -14.5zM112 561l126 161l36 14l77 -106l-193 -121z" />
<glyph unicode="&#xe2;" horiz-adv-x="463" d="M79 541l134 159h32l134 -160l-6 -11h-78l-67 52l-67 -52h-77zM395 105q0 -14 5.5 -18t12.5 -4q5 0 9 1t6 1l18 -56q-7 -6 -28 -19.5t-52 -13.5q-30 0 -49.5 13t-30.5 35q-20 -20 -48.5 -34t-63.5 -14t-62 10t-45.5 28t-28 42.5t-9.5 52.5q0 44 23 74t58.5 48.5t79 27 t84.5 9.5v79q0 11 -15.5 20.5t-49.5 9.5q-8 0 -16 -0.5t-13 -2.5l-26 -74l-124 54q10 24 28.5 45t43.5 37t55.5 25.5t65.5 9.5q32 0 63 -8t55 -27t39 -49.5t15 -76.5v-225zM198 92q28 0 48 15t28 32v65q-19 -1 -40 -4t-39 -10.5t-30 -20t-12 -31.5q0 -17 11 -31.5t34 -14.5z " />
<glyph unicode="&#xe3;" horiz-adv-x="463" d="M314 697l74 -70q-9 -13 -20.5 -26t-24 -23.5t-27 -17t-29.5 -6.5q-18 0 -33 6.5t-28.5 14t-27 14t-29.5 6.5q-26 0 -40.5 -15.5t-19.5 -32.5l-64 42l1 19q4 10 13 24.5t23.5 27t34.5 21.5t47 9q20 0 38 -6.5t33 -14t26 -15t17 -8.5zM395 105q0 -14 5.5 -18t12.5 -4 q5 0 9 1t6 1l18 -56q-7 -6 -28 -19.5t-52 -13.5q-30 0 -49.5 13t-30.5 35q-20 -20 -48.5 -34t-63.5 -14t-62 10t-45.5 28t-28 42.5t-9.5 52.5q0 44 23 74t58.5 48.5t79 27t84.5 9.5v79q0 11 -15.5 20.5t-49.5 9.5q-8 0 -16 -0.5t-13 -2.5l-26 -74l-124 54q10 24 28.5 45 t43.5 37t55.5 25.5t65.5 9.5q32 0 63 -8t55 -27t39 -49.5t15 -76.5v-225zM198 92q28 0 48 15t28 32v65q-19 -1 -40 -4t-39 -10.5t-30 -20t-12 -31.5q0 -17 11 -31.5t34 -14.5z" />
<glyph unicode="&#xe4;" horiz-adv-x="463" d="M70 634q0 26 18 44t44 18t44 -18t18 -44t-18 -44t-44 -18t-44 18t-18 44zM231 634q0 26 18 44t44 18t44 -18t18 -44t-18 -44t-44 -18t-44 18t-18 44zM395 105q0 -14 5.5 -18t12.5 -4q5 0 9 1t6 1l18 -56q-7 -6 -28 -19.5t-52 -13.5q-30 0 -49.5 13t-30.5 35 q-20 -20 -48.5 -34t-63.5 -14t-62 10t-45.5 28t-28 42.5t-9.5 52.5q0 44 23 74t58.5 48.5t79 27t84.5 9.5v79q0 11 -15.5 20.5t-49.5 9.5q-8 0 -16 -0.5t-13 -2.5l-26 -74l-124 54q10 24 28.5 45t43.5 37t55.5 25.5t65.5 9.5q32 0 63 -8t55 -27t39 -49.5t15 -76.5v-225z M198 92q28 0 48 15t28 32v65q-19 -1 -40 -4t-39 -10.5t-30 -20t-12 -31.5q0 -17 11 -31.5t34 -14.5z" />
<glyph unicode="&#xe5;" horiz-adv-x="463" d="M118 631q0 22 8 41.5t22.5 34t33.5 22.5t42 8q22 0 41.5 -8t34 -22.5t22.5 -34t8 -41.5q0 -23 -8 -42t-22.5 -33.5t-34 -22.5t-41.5 -8q-23 0 -42 8t-33.5 22.5t-22.5 33.5t-8 42zM181 631q0 -20 11.5 -31.5t31.5 -11.5t31.5 11.5t11.5 31.5t-11.5 31.5t-31.5 11.5 t-31.5 -11.5t-11.5 -31.5zM395 105q0 -14 5.5 -18t12.5 -4q5 0 9 1t6 1l18 -56q-7 -6 -28 -19.5t-52 -13.5q-30 0 -49.5 13t-30.5 35q-20 -20 -48.5 -34t-63.5 -14t-62 10t-45.5 28t-28 42.5t-9.5 52.5q0 44 23 74t58.5 48.5t79 27t84.5 9.5v79q0 11 -15.5 20.5t-49.5 9.5 q-8 0 -16 -0.5t-13 -2.5l-26 -74l-124 54q10 24 28.5 45t43.5 37t55.5 25.5t65.5 9.5q32 0 63 -8t55 -27t39 -49.5t15 -76.5v-225zM198 92q28 0 48 15t28 32v65q-19 -1 -40 -4t-39 -10.5t-30 -20t-12 -31.5q0 -17 11 -31.5t34 -14.5z" />
<glyph unicode="&#xe6;" horiz-adv-x="698" d="M499 491q31 0 61 -9.5t54 -27.5t38.5 -43.5t14.5 -56.5q0 -45 -17.5 -75.5t-47 -48.5t-68 -25.5t-81.5 -7.5h-27t-24 1q6 -45 33.5 -76t81.5 -31q18 0 37 5t35.5 12.5t30.5 16.5t23 18l23 -87q-6 -8 -21 -18.5t-36 -19.5t-48 -15.5t-58 -6.5q-51 0 -98 18.5t-80 60.5 q-26 -33 -66 -56t-85 -23q-35 0 -62 10t-45.5 28t-28 42.5t-9.5 52.5q0 44 23 74t58.5 48.5t79 27t84.5 9.5v79q0 11 -15.5 20.5t-49.5 9.5q-8 0 -16 -0.5t-13 -2.5l-26 -74l-124 54q10 24 28.5 45t43.5 37t55.5 25.5t65.5 9.5q38 0 73 -11.5t60 -37.5q31 26 68 37.5 t75 11.5zM403 282q5 -1 15 -1h18q19 0 38.5 3.5t35.5 11.5t26 21t10 33q0 23 -12.5 35t-32.5 12q-18 0 -35 -9.5t-30.5 -25t-22 -36.5t-10.5 -44zM198 92q29 0 49 15.5t27 32.5v64q-19 -1 -40 -4t-39 -10.5t-30 -20t-12 -31.5q0 -17 11 -31.5t34 -14.5z" />
<glyph unicode="&#xe7;" horiz-adv-x="431" d="M409 52q-23 -23 -56.5 -37t-73.5 -18l-12 -35q35 -8 55.5 -29t20.5 -58q0 -41 -33 -68.5t-94 -27.5q-22 0 -47 5t-44 13l34 74l55 -40q2 0 10.5 1t17.5 5.5t16.5 12.5t7.5 23q0 49 -70 49l-12 16l21 62q-33 7 -64.5 24t-56 45.5t-39 69t-14.5 94.5q0 75 20 124.5 t51.5 79.5t70.5 42t76 12q44 0 74.5 -12t50 -27.5t29.5 -30t13 -19.5l-121 -65l-43 60q-46 0 -71.5 -43t-25.5 -116q0 -29 6.5 -56t20.5 -47t36 -32t53 -12q21 0 39 5.5t32.5 13t24.5 16l16 13.5q2 -7 6 -19l8 -25t7 -25t5 -18z" />
<glyph unicode="&#xe8;" horiz-adv-x="454" d="M253 491q-40 0 -80 -14.5t-71.5 -45.5t-51.5 -78.5t-20 -113.5q0 -62 19.5 -107.5t51.5 -75.5t72.5 -45t83.5 -15q31 0 57.5 6t48 15t36 19.5t21.5 19.5l-23 87q-18 -17 -46 -34.5t-74 -17.5q-30 0 -52 8.5t-36 22.5t-22 33.5t-11 42.5q11 -1 24 -1h27q43 0 82.5 9 t69.5 28t47.5 48.5t17.5 71.5q0 35 -15 61t-39.5 43t-55 25t-61.5 8zM295 509l-193 121l77 106l36 -14l126 -161zM157 282q2 23 10.5 44t22 36.5t30.5 24.5t35 9q20 0 33 -11.5t13 -34.5q0 -20 -10 -33t-26 -21t-36 -11.5t-39 -3.5h-18q-10 0 -15 1z" />
<glyph unicode="&#xe9;" horiz-adv-x="454" d="M253 491q31 0 61.5 -8t55 -25t39.5 -43t15 -61q0 -42 -17.5 -71.5t-47.5 -48.5t-69.5 -28t-82.5 -9h-27q-13 0 -24 1q3 -23 11 -42.5t22 -33.5t36 -22.5t52 -8.5q46 0 74 17.5t46 34.5l23 -87q-7 -9 -21.5 -19.5t-36 -19.5t-48 -15t-57.5 -6q-43 0 -83.5 15t-72.5 45 t-51.5 75.5t-19.5 107.5q0 66 20 113.5t51.5 78.5t71.5 45.5t80 14.5zM135 561l126 161l36 14l77 -106l-193 -121zM157 282q5 -1 15 -1h18q19 0 39 3.5t36 11.5t26 21t10 33q0 23 -13 34.5t-33 11.5q-18 0 -35 -9t-30.5 -24.5t-22 -36.5t-10.5 -44z" />
<glyph unicode="&#xea;" horiz-adv-x="454" d="M253 491q31 0 61.5 -8t55 -25t39.5 -43t15 -61q0 -42 -17.5 -71.5t-47.5 -48.5t-69.5 -28t-82.5 -9h-27q-13 0 -24 1q3 -23 11 -42.5t22 -33.5t36 -22.5t52 -8.5q46 0 74 17.5t46 34.5l23 -87q-7 -9 -21.5 -19.5t-36 -19.5t-48 -15t-57.5 -6q-43 0 -83.5 15t-72.5 45 t-51.5 75.5t-19.5 107.5q0 66 20 113.5t51.5 78.5t71.5 45.5t80 14.5zM103 541l133 159h33l134 -160l-6 -11h-78l-67 52l-67 -52h-77zM157 282q5 -1 15 -1h18q19 0 39 3.5t36 11.5t26 21t10 33q0 23 -13 34.5t-33 11.5q-18 0 -35 -9t-30.5 -24.5t-22 -36.5t-10.5 -44z" />
<glyph unicode="&#xeb;" horiz-adv-x="454" d="M253 491q31 0 61.5 -8t55 -25t39.5 -43t15 -61q0 -42 -17.5 -71.5t-47.5 -48.5t-69.5 -28t-82.5 -9h-27q-13 0 -24 1q3 -23 11 -42.5t22 -33.5t36 -22.5t52 -8.5q46 0 74 17.5t46 34.5l23 -87q-7 -9 -21.5 -19.5t-36 -19.5t-48 -15t-57.5 -6q-43 0 -83.5 15t-72.5 45 t-51.5 75.5t-19.5 107.5q0 66 20 113.5t51.5 78.5t71.5 45.5t80 14.5zM263 634q0 26 18 44t44 18t44 -18t18 -44t-18 -44t-44 -18t-44 18t-18 44zM102 634q0 26 18 44t44 18t44 -18t18 -44t-18 -44t-44 -18t-44 18t-18 44zM157 282q5 -1 15 -1h18q19 0 39 3.5t36 11.5t26 21 t10 33q0 23 -13 34.5t-33 11.5q-18 0 -35 -9t-30.5 -24.5t-22 -36.5t-10.5 -44z" />
<glyph unicode="&#xec;" horiz-adv-x="288" d="M175 492q-9 -1 -28 -4.5l-41.5 -7.5l-44.5 -8t-35 -6l11 -68h51v-321l-56 -13l11 -64h221v64l-55 11v381zM215 509l-193 121l77 106l36 -14l126 -161z" />
<glyph unicode="&#xed;" horiz-adv-x="288" d="M209 456v-381l55 -11v-64h-221l-11 64l56 13v321h-51l-11 68q13 2 35 6l44.5 8l41.5 7.5t28 4.5zM26 561l126 161l36 14l77 -106l-193 -121z" />
<glyph unicode="&#xee;" horiz-adv-x="288" d="M-4 541l133 159h33l134 -160l-6 -11h-78l-67 52l-67 -52h-77zM209 456v-381l55 -11v-64h-221l-11 64l56 13v321h-51l-11 68q13 2 35 6l44.5 8l41.5 7.5t28 4.5z" />
<glyph unicode="&#xef;" horiz-adv-x="288" d="M-4 634q0 26 18 44t44 18t44 -18t18 -44t-18 -44t-44 -18t-44 18t-18 44zM147 634q0 26 18 44t44 18t44 -18t18 -44t-18 -44t-44 -18t-44 18t-18 44zM209 456v-381l55 -11v-64h-221l-11 64l56 13v321h-51l-11 68q13 2 35 6l44.5 8l41.5 7.5t28 4.5z" />
<glyph unicode="&#xf0;" horiz-adv-x="545" d="M185 736q29 -11 62.5 -27.5t65.5 -39.5l83 66l66 -102l-63 -38q48 -52 79.5 -119t31.5 -150q0 -30 -4 -66t-14.5 -72.5t-28.5 -71t-46.5 -61.5t-68.5 -43t-94 -16q-51 0 -93 18t-71 48.5t-45 70.5t-16 85q0 52 15 95.5t42 75t65 49t85 17.5q48 0 80.5 -14t52.5 -33 q-13 36 -35.5 65.5t-50.5 52.5l-113 -67l-37 67l70 56q-20 11 -38 19l-32 14zM263 101q54 0 82.5 39t35.5 114q-4 28 -16 47.5t-28 31.5t-34.5 17.5t-35.5 5.5q-32 0 -53.5 -11.5t-34.5 -30t-18.5 -42t-5.5 -47.5q0 -23 7.5 -45t22 -39.5t34.5 -28.5t44 -11z" />
<glyph unicode="&#xf1;" horiz-adv-x="555" d="M392 698l73 -70q-9 -13 -20 -26t-23.5 -23.5t-27 -17t-29.5 -6.5q-18 0 -33 6.5t-29 14t-27.5 14t-28.5 6.5q-27 0 -41.5 -15.5t-19.5 -32.5l-64 42l1 19q4 10 13 24.5t23.5 27t35 21.5t47.5 9q19 0 37 -6.5t33 -14t26 -15t17 -8.5zM209 455q19 14 51 25t65 11 q31 0 59 -8t49 -24t33.5 -41t12.5 -59v-286l55 -9q0 -19 -0.5 -38t-0.5 -26h-225v64l50 11v256q0 32 -16.5 47t-45.5 15q-15 0 -29 -4t-26 -10t-20.5 -12.5t-11.5 -10.5v-281l57 -12q0 -19 -0.5 -37.5t-0.5 -25.5h-222l-11 64l56 13v321h-51l-11 68q13 2 35 6l44.5 8 l41.5 7.5t27 4.5z" />
<glyph unicode="&#xf2;" d="M29 246q0 -61 19 -108t50 -78.5t70.5 -47.5t80.5 -16t81 16t71 47.5t50 78.5t19 108t-19 106.5t-50 76.5t-71 46.5t-81 15.5t-80.5 -15.5t-70.5 -46.5t-50 -76.5t-19 -106.5zM153 240q0 42 7.5 72t21 49t30.5 27.5t37 8.5t37.5 -8.5t31 -27.5t21 -49t7.5 -72t-7.5 -70.5 t-21 -46.5t-31 -25.5t-37.5 -7.5t-37 7.5t-30.5 25.5t-21 46.5t-7.5 70.5zM310 509l-193 121l77 106l36 -14l126 -161z" />
<glyph unicode="&#xf3;" d="M29 246q0 61 19 106.5t50 76.5t70.5 46.5t80.5 15.5t81 -15.5t71 -46.5t50 -76.5t19 -106.5t-19 -108t-50 -78.5t-71 -47.5t-81 -16t-80.5 16t-70.5 47.5t-50 78.5t-19 108zM153 240q0 -42 7.5 -70.5t21 -46.5t30.5 -25.5t37 -7.5t37.5 7.5t31 25.5t21 46.5t7.5 70.5 t-7.5 72t-21 49t-31 27.5t-37.5 8.5t-37 -8.5t-30.5 -27.5t-21 -49t-7.5 -72zM143 561l126 161l36 14l77 -106l-193 -121z" />
<glyph unicode="&#xf4;" d="M96 541l133 159h33l134 -160l-6 -11h-78l-67 52l-67 -52h-77zM29 246q0 61 19 106.5t50 76.5t70.5 46.5t80.5 15.5t81 -15.5t71 -46.5t50 -76.5t19 -106.5t-19 -108t-50 -78.5t-71 -47.5t-81 -16t-80.5 16t-70.5 47.5t-50 78.5t-19 108zM153 240q0 -42 7.5 -70.5 t21 -46.5t30.5 -25.5t37 -7.5t37.5 7.5t31 25.5t21 46.5t7.5 70.5t-7.5 72t-21 49t-31 27.5t-37.5 8.5t-37 -8.5t-30.5 -27.5t-21 -49t-7.5 -72z" />
<glyph unicode="&#xf5;" d="M362 697l74 -70q-9 -13 -20.5 -26t-24 -23.5t-27 -17t-29.5 -6.5q-18 0 -33 6.5t-28.5 14t-27 14t-29.5 6.5q-26 0 -40.5 -15.5t-19.5 -32.5l-64 42l1 19q4 10 13 24.5t23.5 27t34.5 21.5t47 9q20 0 38 -6.5t33 -14t26 -15t17 -8.5zM29 246q0 61 19 106.5t50 76.5 t70.5 46.5t80.5 15.5t81 -15.5t71 -46.5t50 -76.5t19 -106.5t-19 -108t-50 -78.5t-71 -47.5t-81 -16t-80.5 16t-70.5 47.5t-50 78.5t-19 108zM153 240q0 -42 7.5 -70.5t21 -46.5t30.5 -25.5t37 -7.5t37.5 7.5t31 25.5t21 46.5t7.5 70.5t-7.5 72t-21 49t-31 27.5t-37.5 8.5 t-37 -8.5t-30.5 -27.5t-21 -49t-7.5 -72z" />
<glyph unicode="&#xf6;" d="M105 634q0 26 18 44t44 18t44 -18t18 -44t-18 -44t-44 -18t-44 18t-18 44zM267 634q0 26 18 44t44 18t44 -18t18 -44t-18 -44t-44 -18t-44 18t-18 44zM29 246q0 61 19 106.5t50 76.5t70.5 46.5t80.5 15.5t81 -15.5t71 -46.5t50 -76.5t19 -106.5t-19 -108t-50 -78.5 t-71 -47.5t-81 -16t-80.5 16t-70.5 47.5t-50 78.5t-19 108zM153 240q0 -42 7.5 -70.5t21 -46.5t30.5 -25.5t37 -7.5t37.5 7.5t31 25.5t21 46.5t7.5 70.5t-7.5 72t-21 49t-31 27.5t-37.5 8.5t-37 -8.5t-30.5 -27.5t-21 -49t-7.5 -72z" />
<glyph unicode="&#xf7;" horiz-adv-x="419" d="M136 84q0 28 19.5 47t47.5 19t47 -19t19 -47t-19 -47.5t-47 -19.5t-47.5 19.5t-19.5 47.5zM136 405q0 28 19.5 47t47.5 19t47 -19t19 -47q0 -27 -19 -47t-47 -20t-47.5 20t-19.5 47zM32 294h355v-100h-355v100z" />
<glyph unicode="&#xf8;" d="M29 246q0 61 19 106.5t50 76.5t70.5 46.5t80.5 15.5q18 0 36 -3l40 97h118l-1 -13l-54 -132q36 -30 59 -78.5t23 -115.5q0 -61 -19 -108t-50 -78.5t-71 -47.5t-81 -16q-10 0 -20 1t-20 3l-42 -105h-115l-3 13l58 143q-35 32 -56.5 80.5t-21.5 114.5zM346 240q0 43 -9 75 l-88 -225q20 0 37.5 7.5t31 25.5t21 46.5t7.5 70.5zM153 240q0 -37 6 -62l89 219q-20 0 -37 -9t-30 -28t-20.5 -48.5t-7.5 -71.5z" />
<glyph unicode="&#xf9;" horiz-adv-x="539" d="M345 401v-257q-8 -20 -31 -36t-50 -16q-31 0 -49.5 19t-18.5 58v285l-35 38l-148 -27l11 -67h51v-252q0 -77 42 -113.5t113 -36.5q33 0 68 11.5t58 36.5q12 -26 33.5 -37t47.5 -11q31 0 51.5 13t26.5 20l-19 56q-2 0 -5.5 -1t-8.5 -1q-6 0 -11 4t-5 18v349l-35 38 l-143 -27l12 -67zM304 509l-193 121l77 106l36 -14l126 -161z" />
<glyph unicode="&#xfa;" horiz-adv-x="539" d="M300 398l-12 67l143 27l35 -38v-349q0 -14 5 -18t11 -4q5 0 8.5 1t5.5 1l19 -56q-6 -7 -26.5 -20t-51.5 -13q-26 0 -47.5 11t-33.5 37q-23 -25 -58 -36.5t-68 -11.5q-71 0 -113 36.5t-42 113.5v252h-51l-11 67l148 27l35 -38v-285q0 -39 18.5 -58t49.5 -19q27 0 50 16 t31 36v257zM137 561l126 161l36 14l77 -106l-193 -121z" />
<glyph unicode="&#xfb;" horiz-adv-x="539" d="M112 541l133 159h33l134 -160l-6 -11h-78l-67 52l-67 -52h-77zM300 398l-12 67l143 27l35 -38v-349q0 -14 5 -18t11 -4q5 0 8.5 1t5.5 1l19 -56q-6 -7 -26.5 -20t-51.5 -13q-26 0 -47.5 11t-33.5 37q-23 -25 -58 -36.5t-68 -11.5q-71 0 -113 36.5t-42 113.5v252h-51 l-11 67l148 27l35 -38v-285q0 -39 18.5 -58t49.5 -19q27 0 50 16t31 36v257z" />
<glyph unicode="&#xfc;" horiz-adv-x="539" d="M121 634q0 26 18 44t44 18t44 -18t18 -44t-18 -44t-44 -18t-44 18t-18 44zM283 634q0 26 18 44t44 18t44 -18t18 -44t-18 -44t-44 -18t-44 18t-18 44zM300 398l-12 67l143 27l35 -38v-349q0 -14 5 -18t11 -4q5 0 8.5 1t5.5 1l19 -56q-6 -7 -26.5 -20t-51.5 -13 q-26 0 -47.5 11t-33.5 37q-23 -25 -58 -36.5t-68 -11.5q-71 0 -113 36.5t-42 113.5v252h-51l-11 67l148 27l35 -38v-285q0 -39 18.5 -58t49.5 -19q27 0 50 16t31 36v257z" />
<glyph unicode="&#xfd;" d="M496 455l-13 -36l-24.5 -69l-32 -91l-36 -103l-36.5 -104.5l-33.5 -95.5l-27.5 -76.5l-17 -46.5q-15 -39 -32.5 -60.5t-35 -32t-32.5 -12.5t-26 -2q-9 0 -23.5 2t-31 7t-34 14t-32.5 23l54 84l12 -10l16 -12t16.5 -10t14.5 -4q16 0 27.5 13t23.5 46l22 60l-169 468h-38 l-8 72l150 12l130 -372l37.5 103.5l33.5 92.5q18 48 33 92h-46l-8 73l146 11zM123 561l126 161l36 14l77 -106l-193 -121z" />
<glyph unicode="&#xfe;" horiz-adv-x="501" d="M14 648l-11 68l149 20l34 -35v-229q16 8 37 13.5t50 5.5q45 0 81 -16.5t62 -47.5t40 -75.5t14 -100.5q0 -74 -19.5 -123t-51 -78t-71.5 -41.5t-81 -12.5q-17 0 -33 2t-30 5l2 -10v-175l119 -26v-65h-284l-6 63l51 15v843h-52zM249 397q-19 0 -35.5 -5t-27.5 -13v-276 q9 -6 26.5 -9.5t34.5 -3.5q41 0 70 37.5t29 118.5q0 78 -27.5 114.5t-69.5 36.5z" />
<glyph unicode="&#xff;" d="M496 455l-13 -36l-24.5 -69l-32 -91l-36 -103l-36.5 -104.5l-33.5 -95.5l-27.5 -76.5l-17 -46.5q-15 -39 -32.5 -60.5t-35 -32t-32.5 -12.5t-26 -2q-9 0 -23.5 2t-31 7t-34 14t-32.5 23l54 84l12 -10l16 -12t16.5 -10t14.5 -4q16 0 27.5 13t23.5 46l22 60l-169 468h-38 l-8 72l150 12l130 -372l37.5 103.5l33.5 92.5q18 48 33 92h-46l-8 73l146 11zM110 634q0 26 18 44t44 18t44 -18t18 -44t-18 -44t-44 -18t-44 18t-18 44zM271 634q0 26 18 44t44 18t44 -18t18 -44t-18 -44t-44 -18t-44 18t-18 44z" />
<glyph unicode="&#x152;" horiz-adv-x="879" d="M821 691l19 -204h-78l-41 99h-162v-178h152v-105h-152v-198h169l37 99h79l-21 -204h-446q-15 0 -28 -0.5t-21 -0.5q-71 0 -125.5 25.5t-91.5 71t-56 109t-19 140.5t21.5 140.5t59.5 109.5t89.5 71t111.5 25h503zM348 104q19 0 43 7t37 18v433q-8 8 -28 16t-52 8 q-43 0 -76 -18.5t-55 -51.5t-33 -77.5t-11 -95.5t10 -94.5t31 -76t54 -50.5t80 -18z" />
<glyph unicode="&#x153;" horiz-adv-x="770" d="M569 491q31 0 61.5 -8t55 -25t39.5 -43t15 -61q0 -42 -17.5 -71.5t-47.5 -48.5t-69.5 -28t-82.5 -9h-27q-13 0 -24 1q3 -23 11 -42.5t22 -33.5t36 -22.5t52 -8.5q46 0 74 17.5t46 34.5l23 -87q-7 -9 -21.5 -19.5t-36 -19.5t-48 -15t-57.5 -6q-47 0 -90.5 17.5t-76.5 52.5 q-32 -35 -73 -52.5t-84 -17.5q-41 0 -80.5 16t-70.5 47.5t-50 78.5t-19 108t19 106.5t50 76.5t70.5 46.5t80.5 15.5q44 0 85.5 -17.5t73.5 -52.5q33 36 75 53t86 17zM153 240q0 -42 7.5 -70.5t21 -46.5t30.5 -25.5t37 -7.5t37.5 7.5t31 25.5t21 46.5t7.5 70.5t-7.5 72 t-21 49t-31 27.5t-37.5 8.5t-37 -8.5t-30.5 -27.5t-21 -49t-7.5 -72zM473 282q5 -1 15 -1h18q19 0 39 3.5t36 11.5t26 21t10 33q0 23 -13 34.5t-33 11.5q-18 0 -35 -9t-30.5 -24.5t-22 -36.5t-10.5 -44z" />
<glyph unicode="&#x178;" horiz-adv-x="583" d="M134 821q0 29 20 49t48 20q29 0 49 -20t20 -49t-20 -48.5t-49 -19.5q-28 0 -48 19.5t-20 48.5zM312 821q0 29 19.5 49t48.5 20t48 -20t19 -49t-19 -48.5t-48 -19.5t-48.5 19.5t-19.5 48.5zM242 690l15 -79l-71 -14l124 -216l112 219l-61 11v79h221v-88l-44 -11l-178 -340 v-155l115 -23l-9 -73h-341l-10 73l114 23v156l-191 339l-40 10v89h244z" />
<glyph unicode="&#x2c6;" horiz-adv-x="514" d="M82 561l171 165h37l172 -166l-7 -12h-86l-98 68l-98 -68h-85z" />
<glyph unicode="&#x2013;" horiz-adv-x="476" d="M53 396h371v-95h-371v95z" />
<glyph unicode="&#x2014;" horiz-adv-x="626" d="M53 396h521v-95h-521v95z" />
<glyph unicode="&#x2018;" horiz-adv-x="219" d="M185 697l-35 -128l41 -120l-130 -47q-2 5 -6 19t-8 32t-7 39t-3 40q0 29 5 58t13 56t18 49.5t20 39.5l88 -28z" />
<glyph unicode="&#x2019;" horiz-adv-x="220" d="M24 461l51 122l-26 125l135 30q2 -8 6 -37t4 -60q0 -33 -8 -66.5t-20 -64t-26.5 -56t-28.5 -43.5l-84 39z" />
<glyph unicode="&#x201a;" horiz-adv-x="237" d="M22 -103l51 122l-37 155l135 30q1 -4 4 -18.5l7 -33.5t7 -39.5t3 -35.5q0 -33 -8 -66.5t-20 -64t-26.5 -56t-28.5 -43.5l-84 39z" />
<glyph unicode="&#x201c;" horiz-adv-x="401" d="M372 687l-46 -125l44 -153l-133 -36q-2 4 -6 21l-9 38t-8.5 42.5t-3.5 36.5q0 31 6.5 63.5t17 61.5t23.5 54t26 43l85 -36zM200 689l-47 -142l46 -165l-133 -36q-2 4 -6.5 23l-9.5 42t-9 46.5t-4 37.5q0 32 7 67t17.5 67.5t23.5 60t25 45.5l86 -35z" />
<glyph unicode="&#x201d;" horiz-adv-x="397" d="M25 433l51 122l-33 135l135 30q1 -4 3.5 -15.5l5.5 -26.5t5.5 -32.5t2.5 -32.5q0 -33 -8 -66.5t-20 -64t-26.5 -56t-28.5 -43.5l-84 39zM197 423l53 140l-35 147l135 30q1 -4 4 -17t6.5 -30.5t6 -37t2.5 -34.5q0 -33 -8 -69.5t-20.5 -70t-27.5 -62t-29 -46.5l-84 39z" />
<glyph unicode="&#x201e;" horiz-adv-x="408" d="M19 -103l51 122l-37 155l135 30q1 -4 4 -18.5l7 -33.5t7 -39.5t3 -35.5q0 -33 -8 -66.5t-20 -64t-26.5 -56t-28.5 -43.5l-84 39zM191 -113l53 140l-39 167l135 30q1 -4 4.5 -20.5t7.5 -37.5t7.5 -43.5t3.5 -37.5q0 -33 -8 -69.5t-20.5 -70t-27.5 -62t-29 -46.5l-84 39z " />
<glyph unicode="&#x2022;" horiz-adv-x="273" d="M35 383q0 21 8 39.5t21.5 32.5t32 22t39.5 8t39.5 -8t32.5 -22t22 -32.5t8 -39.5t-8 -39.5t-22 -32t-32.5 -21.5t-39.5 -8t-39.5 8t-32 21.5t-21.5 32t-8 39.5z" />
<glyph unicode="&#x2026;" horiz-adv-x="633" d="M460 63q0 28 20 47t47 19q28 0 47.5 -19t19.5 -47t-19.5 -47.5t-47.5 -19.5q-27 0 -47 19.5t-20 47.5zM249 63q0 28 20 47t47 19q28 0 47.5 -19t19.5 -47t-19.5 -47.5t-47.5 -19.5q-27 0 -47 19.5t-20 47.5zM38 63q0 28 20 47t47 19q28 0 47.5 -19t19.5 -47t-19.5 -47.5 t-47.5 -19.5q-27 0 -47 19.5t-20 47.5z" />
<glyph unicode="&#x2039;" horiz-adv-x="327" d="M2 314l263 236l5 -2v-131l-119 -117l119 -116v-131l-6 -3l-262 238v26z" />
<glyph unicode="&#x203a;" horiz-adv-x="327" d="M325 288l-262 -238l-6 3v131l119 116l-119 117v131l5 2l263 -236v-26z" />
<glyph unicode="&#x20ac;" horiz-adv-x="620" d="M233 348q0 -11 0.5 -22t1.5 -22h251v-99h-231q18 -49 53 -76.5t93 -27.5q51 0 91 18.5t61 36.5l37 -91q-40 -35 -91 -52t-105 -17q-106 0 -178.5 52t-101.5 157h-83v99h68q-1 8 -1 17v29h-67v100h78q13 59 39.5 104t63 75.5t81.5 46t96 15.5q67 0 109.5 -9.5t59.5 -14.5 q9 -72 13.5 -113t6.5 -63h-81l-52 89q-8 1 -17.5 3.5t-28.5 2.5q-66 0 -103 -35.5t-52 -100.5h242v-102h-253z" />
<glyph unicode="&#x2122;" horiz-adv-x="1510" d="M664 690h257l144 -512l145 512h239l15 -93l-55 -12v-491l51 -7v-87h-212l-9 90l44 13v493l-167 -583h-134l-163 576v-491l46 -11q0 -4 0.5 -18t0.5 -29v-40h-200l-6 87l59 8v495l-55 6v94zM128 80l115 22v483h-113l-43 -100h-77l19 205h555l22 -204h-76l-44 99h-114v-483 l116 -22l-10 -80h-340z" />
<glyph unicode="&#xe000;" horiz-adv-x="490" d="M0 490h490v-490h-490v490z" />
<glyph unicode="&#xfb01;" horiz-adv-x="647" d="M427 663q0 29 21.5 50.5t51.5 21.5t51 -21.5t21 -50.5q0 -30 -21 -51.5t-51 -21.5t-51.5 21.5t-21.5 51.5zM568 456v-381l55 -11v-64h-221l-11 64l56 13v321h-51l-11 68q13 2 35 6l44.5 8l41.5 7.5t28 4.5zM220 400v-326l96 -11q0 -19 -0.5 -38t-0.5 -25h-256l-14 63 l54 13v324h-72l-15 81l7 10h81v50q0 53 13.5 90t36 60t51.5 33t60 10q15 0 34 -3.5t39.5 -12.5t41 -24.5t38.5 -40.5l-114 -69l-40 55q-23 0 -31.5 -12.5t-8.5 -34.5v-101h114q5 0 5 -6v-85h-119z" />
<glyph unicode="&#xfb02;" horiz-adv-x="643" d="M559 700v-621l65 -16v-63h-231l-11 63l56 14v571h-52l-11 68l149 21zM220 400v-326l96 -11q0 -19 -0.5 -38t-0.5 -25h-256l-14 63l54 13v324h-72l-15 81l7 10h81v50q0 53 13.5 90t36 60t51.5 33t60 10q15 0 34 -3.5t39.5 -12.5t41 -24.5t38.5 -40.5l-114 -69l-40 55 q-23 0 -31.5 -12.5t-8.5 -34.5v-101h114q5 0 5 -6v-85h-119z" />
<glyph unicode="&#xfb03;" horiz-adv-x="1006" d="M786 663q0 29 21.5 50.5t51.5 21.5t51 -21.5t21 -50.5q0 -30 -21 -51.5t-51 -21.5t-51.5 21.5t-21.5 51.5zM927 456v-381l55 -11v-64h-221l-11 64l56 13v321h-51l-11 68q13 2 35 6l44.5 8l41.5 7.5t28 4.5zM579 400v-326l96 -11q0 -19 -0.5 -38t-0.5 -25h-256l-14 63 l54 13v324h-72l-15 81l7 10h81v50q0 53 13.5 90t36 60t51.5 33t60 10q15 0 34 -3.5t39.5 -12.5t41 -24.5t38.5 -40.5l-114 -69l-40 55q-23 0 -31.5 -12.5t-8.5 -34.5v-101h114q5 0 5 -6v-85h-119zM220 400v-326l96 -11q0 -19 -0.5 -38t-0.5 -25h-256l-14 63l54 13v324h-72 l-15 81l7 10h81v50q0 53 13.5 90t36 60t51.5 33t60 10q15 0 34 -3.5t39.5 -12.5t41 -24.5t38.5 -40.5l-114 -69l-40 55q-23 0 -31.5 -12.5t-8.5 -34.5v-101h114q5 0 5 -6v-85h-119z" />
<glyph unicode="&#xfb04;" horiz-adv-x="1002" d="M918 700v-621l65 -16v-63h-231l-11 63l56 14v571h-52l-11 68l149 21zM579 400v-326l96 -11q0 -19 -0.5 -38t-0.5 -25h-256l-14 63l54 13v324h-72l-15 81l7 10h81v50q0 53 13.5 90t36 60t51.5 33t60 10q15 0 34 -3.5t39.5 -12.5t41 -24.5t38.5 -40.5l-114 -69l-40 55 q-23 0 -31.5 -12.5t-8.5 -34.5v-101h114q5 0 5 -6v-85h-119zM220 400v-326l96 -11q0 -19 -0.5 -38t-0.5 -25h-256l-14 63l54 13v324h-72l-15 81l7 10h81v50q0 53 13.5 90t36 60t51.5 33t60 10q15 0 34 -3.5t39.5 -12.5t41 -24.5t38.5 -40.5l-114 -69l-40 55 q-23 0 -31.5 -12.5t-8.5 -34.5v-101h114q5 0 5 -6v-85h-119z" />
</font>
</defs>
</svg>
